{
    "asset" : {
        "generator" : "Khronos glTF Blender I/O v1.5.17",
        "version" : "2.0"
    },
    "scene" : 0,
    "scenes" : [
        {
            "name" : "Scene",
            "nodes" : [
                0,
                1,
                2,
                3,
                4,
                5,
                6,
                7,
                8,
                9,
                10,
                11,
                12,
                13,
                14,
                15,
                16,
                17,
                18,
                19
            ]
        }
    ],
    "nodes" : [
        {
            "name" : "Light",
            "rotation" : [
                0.16907575726509094,
                0.7558803558349609,
                -0.27217137813568115,
                0.570947527885437
            ],
            "translation" : [
                4.076245307922363,
                5.903861999511719,
                -1.0054539442062378
            ]
        },
        {
            "name" : "Camera",
            "rotation" : [
                0.483536034822464,
                0.33687159419059753,
                -0.20870360732078552,
                0.7804827094078064
            ],
            "translation" : [
                7.358891487121582,
                4.958309173583984,
                6.925790786743164
            ]
        },
        {
            "mesh" : 0,
            "name" : "Grid"
        },
        {
            "mesh" : 1,
            "name" : "TreeInstance",
            "translation" : [
                -6.504486560821533,
                0,
                6.857352256774902
            ]
        },
        {
            "mesh" : 1,
            "name" : "TreeInstance.001",
            "scale" : [
                0.45565712451934814,
                0.45565712451934814,
                0.45565712451934814
            ],
            "translation" : [
                7.435997486114502,
                0.09406536817550659,
                9.291007995605469
            ]
        },
        {
            "mesh" : 1,
            "name" : "TreeInstance.002",
            "rotation" : [
                0,
                -0.2907118499279022,
                0,
                0.9568106532096863
            ],
            "scale" : [
                0.45565712451934814,
                0.45565712451934814,
                0.45565712451934814
            ],
            "translation" : [
                9.349774360656738,
                0.02388441562652588,
                -8.025999069213867
            ]
        },
        {
            "mesh" : 1,
            "name" : "TreeInstance.003",
            "rotation" : [
                0,
                -0.2749583125114441,
                0,
                0.9614561796188354
            ],
            "scale" : [
                0.45565712451934814,
                0.45565712451934814,
                0.45565712451934814
            ],
            "translation" : [
                2.1442675590515137,
                -0.04470014572143555,
                -6.2593817710876465
            ]
        },
        {
            "mesh" : 1,
            "name" : "TreeInstance.004",
            "rotation" : [
                0,
                -0.7293999791145325,
                0,
                0.6840874552726746
            ],
            "scale" : [
                0.45565712451934814,
                0.45565712451934814,
                0.45565712451934814
            ],
            "translation" : [
                5.107330322265625,
                -0.04470014572143555,
                -9.419981956481934
            ]
        },
        {
            "mesh" : 1,
            "name" : "TreeInstance.005",
            "rotation" : [
                0,
                -0.0815829336643219,
                0,
                0.996666669845581
            ],
            "scale" : [
                0.40478116273880005,
                0.4047811031341553,
                0.40478116273880005
            ],
            "translation" : [
                -1.2703099250793457,
                -0.04470014572143555,
                -7.557485580444336
            ]
        },
        {
            "mesh" : 1,
            "name" : "TreeInstance.006",
            "rotation" : [
                0,
                0.4451967775821686,
                0,
                0.8954327702522278
            ],
            "scale" : [
                0.45565712451934814,
                0.45565712451934814,
                0.45565712451934814
            ],
            "translation" : [
                5.216800689697266,
                -0.16793429851531982,
                -4.554332256317139
            ]
        },
        {
            "mesh" : 1,
            "name" : "TreeInstance.008",
            "rotation" : [
                0,
                0.13448818027973175,
                0,
                0.9909151792526245
            ],
            "scale" : [
                0.45565712451934814,
                0.45565712451934814,
                0.45565712451934814
            ],
            "translation" : [
                2.9895198345184326,
                -0.2575731873512268,
                8.031609535217285
            ]
        },
        {
            "mesh" : 1,
            "name" : "TreeInstance.009",
            "rotation" : [
                0,
                0.6120589971542358,
                0,
                0.7908121347427368
            ],
            "translation" : [
                -6.567837715148926,
                0.02205684781074524,
                -4.793278694152832
            ]
        },
        {
            "mesh" : 1,
            "name" : "TreeInstance.010",
            "rotation" : [
                0,
                -0.0815829336643219,
                0,
                0.996666669845581
            ],
            "scale" : [
                0.4953759014606476,
                0.4953758716583252,
                0.4953759014606476
            ],
            "translation" : [
                -2.8581137657165527,
                -0.08846354484558105,
                -5.650238513946533
            ]
        },
        {
            "mesh" : 1,
            "name" : "TreeInstance.011",
            "rotation" : [
                0,
                -0.6347298622131348,
                0,
                0.7727341055870056
            ],
            "scale" : [
                0.4953759014606476,
                0.4953758716583252,
                0.4953759014606476
            ],
            "translation" : [
                -1.762205958366394,
                -0.004065036773681641,
                7.722998142242432
            ]
        },
        {
            "mesh" : 1,
            "name" : "TreeInstance.013",
            "rotation" : [
                0,
                -0.9678494930267334,
                0,
                0.25153008103370667
            ],
            "scale" : [
                0.4953759014606476,
                0.4953758716583252,
                0.4953759014606476
            ],
            "translation" : [
                -4.79722261428833,
                -0.09823071956634521,
                -9.78847885131836
            ]
        },
        {
            "mesh" : 2,
            "name" : "RockInstance",
            "rotation" : [
                0,
                0.34594956040382385,
                0,
                0.9382532238960266
            ],
            "scale" : [
                1,
                3.0963640213012695,
                1
            ],
            "translation" : [
                8.954240798950195,
                0,
                -3.6079416275024414
            ]
        },
        {
            "mesh" : 2,
            "name" : "RockInstance.001",
            "rotation" : [
                0,
                0.7471392154693604,
                0,
                0.6646676063537598
            ],
            "scale" : [
                0.8983691334724426,
                3.7919692993164062,
                0.9986733794212341
            ],
            "translation" : [
                7.938333511352539,
                0,
                4.234864711761475
            ]
        },
        {
            "mesh" : 2,
            "name" : "RockInstance.002",
            "rotation" : [
                0,
                0.34594956040382385,
                0,
                0.9382532238960266
            ],
            "scale" : [
                0.6124643087387085,
                0.9853469133377075,
                0.6124643087387085
            ],
            "translation" : [
                -9.842182159423828,
                -0.18715381622314453,
                9.411755561828613
            ]
        },
        {
            "mesh" : 1,
            "name" : "TreeInstance.007",
            "rotation" : [
                0,
                -0.5241522192955017,
                0,
                0.851624608039856
            ],
            "scale" : [
                0.4953759014606476,
                0.4953758716583252,
                0.4953759014606476
            ],
            "translation" : [
                -9.891111373901367,
                -0.09823071956634521,
                -9.78847885131836
            ]
        },
        {
            "mesh" : 2,
            "name" : "RockInstance.003",
            "rotation" : [
                -0.07632900774478912,
                0.3448028266429901,
                -0.028143784031271935,
                0.935143232345581
            ],
            "scale" : [
                0.897491455078125,
                1.7614761590957642,
                0.8298192620277405
            ],
            "translation" : [
                -9.842182159423828,
                -0.03499220311641693,
                -1.195199966430664
            ]
        }
    ],
    "materials" : [
        {
            "doubleSided" : true,
            "name" : "Dead Tree",
            "pbrMetallicRoughness" : {
                "baseColorFactor" : [
                    0.3948811888694763,
                    0.3546105921268463,
                    0.3357003629207611,
                    1
                ],
                "metallicFactor" : 0.130952388048172
            }
        }
    ],
    "meshes" : [
        {
            "name" : "Grid",
            "primitives" : [
                {
                    "attributes" : {
                        "POSITION" : 0,
                        "NORMAL" : 1,
                        "TEXCOORD_0" : 2
                    },
                    "indices" : 3
                }
            ]
        },
        {
            "name" : "Cylinder.001",
            "primitives" : [
                {
                    "attributes" : {
                        "POSITION" : 4,
                        "NORMAL" : 5,
                        "TEXCOORD_0" : 6
                    },
                    "indices" : 7,
                    "material" : 0
                }
            ]
        },
        {
            "name" : "Icosphere",
            "primitives" : [
                {
                    "attributes" : {
                        "POSITION" : 8,
                        "NORMAL" : 9,
                        "TEXCOORD_0" : 10
                    },
                    "indices" : 11
                }
            ]
        }
    ],
    "accessors" : [
        {
            "bufferView" : 0,
            "componentType" : 5126,
            "count" : 145,
            "max" : [
                12.5,
                0,
                12.5
            ],
            "min" : [
                -12.5,
                0,
                -12.5
            ],
            "type" : "VEC3"
        },
        {
            "bufferView" : 1,
            "componentType" : 5126,
            "count" : 145,
            "type" : "VEC3"
        },
        {
            "bufferView" : 2,
            "componentType" : 5126,
            "count" : 145,
            "type" : "VEC2"
        },
        {
            "bufferView" : 3,
            "componentType" : 5123,
            "count" : 486,
            "type" : "SCALAR"
        },
        {
            "bufferView" : 4,
            "componentType" : 5126,
            "count" : 1095,
            "max" : [
                5.810699462890625,
                18.2288761138916,
                2.6962924003601074
            ],
            "min" : [
                -3.224182605743408,
                -0.24516278505325317,
                -3.4497313499450684
            ],
            "type" : "VEC3"
        },
        {
            "bufferView" : 5,
            "componentType" : 5126,
            "count" : 1095,
            "type" : "VEC3"
        },
        {
            "bufferView" : 6,
            "componentType" : 5126,
            "count" : 1095,
            "type" : "VEC2"
        },
        {
            "bufferView" : 7,
            "componentType" : 5123,
            "count" : 1641,
            "type" : "SCALAR"
        },
        {
            "bufferView" : 8,
            "componentType" : 5126,
            "count" : 480,
            "max" : [
                3.3050646781921387,
                1.87666916847229,
                2.7775094509124756
            ],
            "min" : [
                -2.9008567333221436,
                -0.1401340365409851,
                -2.7615203857421875
            ],
            "type" : "VEC3"
        },
        {
            "bufferView" : 9,
            "componentType" : 5126,
            "count" : 480,
            "type" : "VEC3"
        },
        {
            "bufferView" : 10,
            "componentType" : 5126,
            "count" : 480,
            "type" : "VEC2"
        },
        {
            "bufferView" : 11,
            "componentType" : 5123,
            "count" : 480,
            "type" : "SCALAR"
        }
    ],
    "bufferViews" : [
        {
            "buffer" : 0,
            "byteLength" : 1740,
            "byteOffset" : 0
        },
        {
            "buffer" : 0,
            "byteLength" : 1740,
            "byteOffset" : 1740
        },
        {
            "buffer" : 0,
            "byteLength" : 1160,
            "byteOffset" : 3480
        },
        {
            "buffer" : 0,
            "byteLength" : 972,
            "byteOffset" : 4640
        },
        {
            "buffer" : 0,
            "byteLength" : 13140,
            "byteOffset" : 5612
        },
        {
            "buffer" : 0,
            "byteLength" : 13140,
            "byteOffset" : 18752
        },
        {
            "buffer" : 0,
            "byteLength" : 8760,
            "byteOffset" : 31892
        },
        {
            "buffer" : 0,
            "byteLength" : 3282,
            "byteOffset" : 40652
        },
        {
            "buffer" : 0,
            "byteLength" : 5760,
            "byteOffset" : 43936
        },
        {
            "buffer" : 0,
            "byteLength" : 5760,
            "byteOffset" : 49696
        },
        {
            "buffer" : 0,
            "byteLength" : 3840,
            "byteOffset" : 55456
        },
        {
            "buffer" : 0,
            "byteLength" : 960,
            "byteOffset" : 59296
        }
    ],
    "buffers" : [
        {
            "byteLength" : 60256,
            "uri" : "TerrainSquare3.bin"
        }
    ]
}
