{
    "asset" : {
        "generator" : "Khronos glTF Blender I/O v1.5.17",
        "version" : "2.0"
    },
    "scene" : 0,
    "scenes" : [
        {
            "name" : "Scene",
            "nodes" : [
                0,
                1,
                2,
                3,
                4,
                5,
                6,
                7,
                8,
                9,
                10,
                11,
                12,
                13,
                14,
                15,
                16,
                17,
                18,
                19,
                20,
                21,
                22,
                23,
                24,
                25,
                26,
                27,
                28,
                29,
                30,
                31
            ]
        }
    ],
    "nodes" : [
        {
            "mesh" : 0,
            "name" : "Landscape.002"
        },
        {
            "mesh" : 1,
            "name" : "Dead Tree",
            "rotation" : [
                0,
                -0.7739325165748596,
                0,
                0.6332681179046631
            ],
            "translation" : [
                -32.79741287231445,
                1.6025980710983276,
                48.139827728271484
            ]
        },
        {
            "mesh" : 1,
            "name" : "Dead Tree.001",
            "rotation" : [
                0,
                0.7187639474868774,
                0,
                0.6952542066574097
            ],
            "translation" : [
                -34.903995513916016,
                2.567066192626953,
                12.664947509765625
            ]
        },
        {
            "mesh" : 1,
            "name" : "Dead Tree.002",
            "translation" : [
                1.8348350524902344,
                1.8260606527328491,
                30.107465744018555
            ]
        },
        {
            "mesh" : 1,
            "name" : "Dead Tree.003",
            "rotation" : [
                0,
                0.6519272327423096,
                0,
                0.7582815289497375
            ],
            "translation" : [
                44.387840270996094,
                1.3135095834732056,
                42.325653076171875
            ]
        },
        {
            "mesh" : 1,
            "name" : "Dead Tree.004",
            "rotation" : [
                0,
                -0.9010215997695923,
                0,
                0.433774471282959
            ],
            "translation" : [
                48.095428466796875,
                2.434483528137207,
                20.41717529296875
            ]
        },
        {
            "mesh" : 1,
            "name" : "Dead Tree.005",
            "rotation" : [
                0,
                0.6581307053565979,
                0,
                0.7529036998748779
            ],
            "translation" : [
                43.7137336730957,
                0.2765406370162964,
                -4.440521240234375
            ]
        },
        {
            "mesh" : 1,
            "name" : "Dead Tree.006",
            "translation" : [
                -19.844316482543945,
                2.104809522628784,
                -34.79839324951172
            ]
        },
        {
            "mesh" : 1,
            "name" : "Dead Tree.007",
            "translation" : [
                28.555498123168945,
                0.4232332706451416,
                -35.49730682373047
            ]
        },
        {
            "mesh" : 1,
            "name" : "Dead Tree.008",
            "rotation" : [
                0,
                -0.9122126698493958,
                0,
                0.4097170829772949
            ],
            "translation" : [
                83.07080841064453,
                2.9571499824523926,
                2.4187889099121094
            ]
        },
        {
            "mesh" : 1,
            "name" : "Dead Tree.009",
            "rotation" : [
                0,
                -0.9890610575675964,
                0,
                0.14750730991363525
            ],
            "translation" : [
                87.61375427246094,
                -0.8623604774475098,
                68.64091491699219
            ]
        },
        {
            "mesh" : 1,
            "name" : "Dead Tree.010",
            "rotation" : [
                0,
                -0.8470181822776794,
                0,
                0.5315638780593872
            ],
            "translation" : [
                40.61176681518555,
                1.0874991416931152,
                95.19965362548828
            ]
        },
        {
            "mesh" : 1,
            "name" : "Dead Tree.011",
            "rotation" : [
                0,
                0.9218833446502686,
                0,
                0.3874675929546356
            ],
            "translation" : [
                -4.9923858642578125,
                -0.6563318967819214,
                79.29935455322266
            ]
        },
        {
            "mesh" : 1,
            "name" : "Dead Tree.012",
            "rotation" : [
                0,
                -0.5915248990058899,
                0,
                0.8062867522239685
            ],
            "translation" : [
                -82.222412109375,
                -1.7070930004119873,
                62.70014190673828
            ]
        },
        {
            "mesh" : 1,
            "name" : "Dead Tree.013",
            "rotation" : [
                0,
                -0.9899007081985474,
                0,
                0.1417623907327652
            ],
            "translation" : [
                -82.222412109375,
                1.8195760250091553,
                18.144363403320312
            ]
        },
        {
            "mesh" : 1,
            "name" : "Dead Tree.014",
            "rotation" : [
                0,
                -0.45340442657470703,
                0,
                0.8913049101829529
            ],
            "translation" : [
                -88.86209869384766,
                1.7171249389648438,
                -43.36008834838867
            ]
        },
        {
            "mesh" : 2,
            "name" : "Cube",
            "translation" : [
                -18.48749351501465,
                9.028654098510742,
                -4.582010269165039
            ]
        },
        {
            "mesh" : 2,
            "name" : "Cube.001",
            "translation" : [
                79.64311981201172,
                7.010265350341797,
                -57.02333068847656
            ]
        },
        {
            "mesh" : 2,
            "name" : "Cube.002",
            "rotation" : [
                0,
                -0.4946131408214569,
                0,
                0.8691133856773376
            ],
            "translation" : [
                -87.7013168334961,
                3.038033962249756,
                -87.91443634033203
            ]
        },
        {
            "mesh" : 1,
            "name" : "Dead Tree.015",
            "translation" : [
                -23.5462703704834,
                1.5031132698059082,
                -92.37700653076172
            ]
        },
        {
            "mesh" : 1,
            "name" : "Dead Tree.016",
            "translation" : [
                42.16400146484375,
                2.2267160415649414,
                -102.96597290039062
            ]
        },
        {
            "mesh" : 1,
            "name" : "Dead Tree.017",
            "translation" : [
                93.36189270019531,
                1.4116032123565674,
                -95.9805679321289
            ]
        },
        {
            "mesh" : 1,
            "name" : "Dead Tree.018",
            "translation" : [
                49.159149169921875,
                2.212273597717285,
                -71.34297943115234
            ]
        },
        {
            "mesh" : 1,
            "name" : "Dead Tree.019",
            "translation" : [
                -67.14478302001953,
                -0.8489731550216675,
                -113.00949096679688
            ]
        },
        {
            "mesh" : 1,
            "name" : "Dead Tree.020",
            "translation" : [
                -110.9852066040039,
                3.8009276390075684,
                -106.48777770996094
            ]
        },
        {
            "mesh" : 1,
            "name" : "Dead Tree.021",
            "translation" : [
                -112.43447875976562,
                0.8379039764404297,
                -61.92272186279297
            ]
        },
        {
            "mesh" : 2,
            "name" : "Cube.003",
            "translation" : [
                -92.4002685546875,
                6.156801223754883,
                99.04082489013672
            ]
        },
        {
            "mesh" : 2,
            "name" : "Cube.004",
            "rotation" : [
                0,
                -0.5240673422813416,
                0,
                0.8516768217086792
            ],
            "translation" : [
                -25.37152099609375,
                5.607583045959473,
                96.50460052490234
            ]
        },
        {
            "mesh" : 2,
            "name" : "Cube.005",
            "rotation" : [
                0,
                -0.25632423162460327,
                0,
                0.9665908813476562
            ],
            "translation" : [
                52.1644287109375,
                5.166529655456543,
                74.76554870605469
            ]
        },
        {
            "mesh" : 2,
            "name" : "Cube.006",
            "translation" : [
                105.42510986328125,
                6.180795192718506,
                100.8524169921875
            ]
        },
        {
            "mesh" : 2,
            "name" : "Cube.007",
            "rotation" : [
                0,
                0.20057938992977142,
                0,
                0.9796774387359619
            ],
            "translation" : [
                105.78742980957031,
                5.977149963378906,
                17.519371032714844
            ]
        },
        {
            "mesh" : 2,
            "name" : "Cube.008",
            "rotation" : [
                0,
                0.2293252795934677,
                0,
                0.9733498692512512
            ],
            "translation" : [
                109.41060638427734,
                5.742338180541992,
                -35.74131393432617
            ]
        }
    ],
    "materials" : [
        {
            "doubleSided" : true,
            "name" : "Ground",
            "pbrMetallicRoughness" : {
                "baseColorFactor" : [
                    0.09849736839532852,
                    0.09330534934997559,
                    0.05525471642613411,
                    1
                ],
                "metallicFactor" : 0,
                "roughnessFactor" : 0.8897058963775635
            }
        },
        {
            "doubleSided" : true,
            "name" : "Dead Tree",
            "pbrMetallicRoughness" : {
                "baseColorFactor" : [
                    0.3948811888694763,
                    0.3546105921268463,
                    0.3357003629207611,
                    1
                ],
                "metallicFactor" : 0.130952388048172
            }
        },
        {
            "name" : "Material",
            "pbrMetallicRoughness" : {
                "baseColorFactor" : [
                    0.15232551097869873,
                    0.15232551097869873,
                    0.15232551097869873,
                    1
                ],
                "metallicFactor" : 0.1617647111415863,
                "roughnessFactor" : 0.4000000059604645
            }
        }
    ],
    "meshes" : [
        {
            "name" : "Landscape.002",
            "primitives" : [
                {
                    "attributes" : {
                        "POSITION" : 0,
                        "NORMAL" : 1
                    },
                    "indices" : 2,
                    "material" : 0
                }
            ]
        },
        {
            "name" : "Cylinder.001",
            "primitives" : [
                {
                    "attributes" : {
                        "POSITION" : 3,
                        "NORMAL" : 4
                    },
                    "indices" : 5,
                    "material" : 1
                }
            ]
        },
        {
            "name" : "Cube.001",
            "primitives" : [
                {
                    "attributes" : {
                        "POSITION" : 6,
                        "NORMAL" : 7
                    },
                    "indices" : 8,
                    "material" : 2
                }
            ]
        }
    ],
    "accessors" : [
        {
            "bufferView" : 0,
            "componentType" : 5126,
            "count" : 16384,
            "max" : [
                128,
                6.612936019897461,
                128
            ],
            "min" : [
                -128,
                -2,
                -128
            ],
            "type" : "VEC3"
        },
        {
            "bufferView" : 1,
            "componentType" : 5126,
            "count" : 16384,
            "type" : "VEC3"
        },
        {
            "bufferView" : 2,
            "componentType" : 5123,
            "count" : 96774,
            "type" : "SCALAR"
        },
        {
            "bufferView" : 3,
            "componentType" : 5126,
            "count" : 1095,
            "max" : [
                5.810699462890625,
                18.2288761138916,
                2.6962924003601074
            ],
            "min" : [
                -3.224182605743408,
                -0.24516278505325317,
                -3.4497313499450684
            ],
            "type" : "VEC3"
        },
        {
            "bufferView" : 4,
            "componentType" : 5126,
            "count" : 1095,
            "type" : "VEC3"
        },
        {
            "bufferView" : 5,
            "componentType" : 5123,
            "count" : 1641,
            "type" : "SCALAR"
        },
        {
            "bufferView" : 6,
            "componentType" : 5126,
            "count" : 24,
            "max" : [
                5.830140590667725,
                5.830140590667725,
                5.830140590667725
            ],
            "min" : [
                -5.830140590667725,
                -5.830140590667725,
                -5.830140590667725
            ],
            "type" : "VEC3"
        },
        {
            "bufferView" : 7,
            "componentType" : 5126,
            "count" : 24,
            "type" : "VEC3"
        },
        {
            "bufferView" : 8,
            "componentType" : 5123,
            "count" : 36,
            "type" : "SCALAR"
        }
    ],
    "bufferViews" : [
        {
            "buffer" : 0,
            "byteLength" : 196608,
            "byteOffset" : 0
        },
        {
            "buffer" : 0,
            "byteLength" : 196608,
            "byteOffset" : 196608
        },
        {
            "buffer" : 0,
            "byteLength" : 193548,
            "byteOffset" : 393216
        },
        {
            "buffer" : 0,
            "byteLength" : 13140,
            "byteOffset" : 586764
        },
        {
            "buffer" : 0,
            "byteLength" : 13140,
            "byteOffset" : 599904
        },
        {
            "buffer" : 0,
            "byteLength" : 3282,
            "byteOffset" : 613044
        },
        {
            "buffer" : 0,
            "byteLength" : 288,
            "byteOffset" : 616328
        },
        {
            "buffer" : 0,
            "byteLength" : 288,
            "byteOffset" : 616616
        },
        {
            "buffer" : 0,
            "byteLength" : 72,
            "byteOffset" : 616904
        }
    ],
    "buffers" : [
        {
            "byteLength" : 616976,
            "uri" : "test_level.bin"
        }
    ]
}
