{
    "asset" : {
        "generator" : "Khronos glTF Blender I/O v1.3.48",
        "version" : "2.0"
    },
    "scene" : 0,
    "scenes" : [
        {
            "name" : "Scene",
            "nodes" : [
                0
            ]
        }
    ],
    "nodes" : [
        {
            "mesh" : 0,
            "name" : "Suzanne",
            "translation" : [
                0,
                0.20583339035511017,
                0
            ]
        }
    ],
    "materials" : [
        {
            "doubleSided" : true,
            "emissiveFactor" : [
                0,
                0,
                0
            ],
            "name" : "StandardMaterial",
            "pbrMetallicRoughness" : {
                "baseColorFactor" : [
                    0.6220604777336121,
                    0.029735734686255455,
                    0.2597227394580841,
                    1
                ],
                "metallicFactor" : 0,
                "roughnessFactor" : 0.7420634627342224
            }
        }
    ],
    "meshes" : [
        {
            "name" : "Suzanne",
            "primitives" : [
                {
                    "attributes" : {
                        "POSITION" : 0,
                        "NORMAL" : 1
                    },
                    "indices" : 2,
                    "material" : 0
                }
            ]
        }
    ],
    "accessors" : [
        {
            "bufferView" : 0,
            "componentType" : 5126,
            "count" : 25255,
            "max" : [
                1.3289175033569336,
                0.9392415881156921,
                0.822670042514801
            ],
            "min" : [
                -1.3289011716842651,
                -0.9719235897064209,
                -0.7782443761825562
            ],
            "type" : "VEC3"
        },
        {
            "bufferView" : 1,
            "componentType" : 5126,
            "count" : 25255,
            "type" : "VEC3"
        },
        {
            "bufferView" : 2,
            "componentType" : 5123,
            "count" : 150006,
            "type" : "SCALAR"
        }
    ],
    "bufferViews" : [
        {
            "buffer" : 0,
            "byteLength" : 303060,
            "byteOffset" : 0
        },
        {
            "buffer" : 0,
            "byteLength" : 303060,
            "byteOffset" : 303060
        },
        {
            "buffer" : 0,
            "byteLength" : 300012,
            "byteOffset" : 606120
        }
    ],
    "buffers" : [
        {
            "byteLength" : 906132,
            "uri" : "data:application/octet-stream;base64,"
        }
    ]
}
