{
    "asset" : {
        "generator" : "Khronos glTF Blender I/O v1.3.48",
        "version" : "2.0"
    },
    "scene" : 0,
    "scenes" : [
        {
            "name" : "Scene",
            "nodes" : [
                0
            ]
        }
    ],
    "nodes" : [
        {
            "mesh" : 0,
            "name" : "Suzanne",
            "translation" : [
                0,
                0.20583339035511017,
                0
            ]
        }
    ],
    "materials" : [
        {
            "doubleSided" : true,
            "emissiveFactor" : [
                0,
                0,
                0
            ],
            "name" : "NormalMapMaterial",
            "normalTexture" : {
                "index" : 0,
                "texCoord" : 0
            },
            "pbrMetallicRoughness" : {
                "baseColorFactor" : [
                    0.5639402866363525,
                    0.142684206366539,
                    0.041780538856983185,
                    1
                ],
                "metallicFactor" : 0.14285710453987122,
                "roughnessFactor" : 0.4047618508338928
            }
        }
    ],
    "meshes" : [
        {
            "name" : "Suzanne",
            "primitives" : [
                {
                    "attributes" : {
                        "POSITION" : 0,
                        "NORMAL" : 1,
                        "TANGENT" : 2,
                        "TEXCOORD_0" : 3
                    },
                    "indices" : 4,
                    "material" : 0
                }
            ]
        }
    ],
    "textures" : [
        {
            "source" : 0
        }
    ],
    "images" : [
        {
            "bufferView" : 5,
            "mimeType" : "image/png",
            "name" : "TestNormalMap"
        }
    ],
    "accessors" : [
        {
            "bufferView" : 0,
            "componentType" : 5126,
            "count" : 26391,
            "max" : [
                1.3289175033569336,
                0.9392415881156921,
                0.822670042514801
            ],
            "min" : [
                -1.3289011716842651,
                -0.9719235897064209,
                -0.7782443761825562
            ],
            "type" : "VEC3"
        },
        {
            "bufferView" : 1,
            "componentType" : 5126,
            "count" : 26391,
            "type" : "VEC3"
        },
        {
            "bufferView" : 2,
            "componentType" : 5126,
            "count" : 26391,
            "type" : "VEC4"
        },
        {
            "bufferView" : 3,
            "componentType" : 5126,
            "count" : 26391,
            "type" : "VEC2"
        },
        {
            "bufferView" : 4,
            "componentType" : 5123,
            "count" : 150006,
            "type" : "SCALAR"
        }
    ],
    "bufferViews" : [
        {
            "buffer" : 0,
            "byteLength" : 316692,
            "byteOffset" : 0
        },
        {
            "buffer" : 0,
            "byteLength" : 316692,
            "byteOffset" : 316692
        },
        {
            "buffer" : 0,
            "byteLength" : 422256,
            "byteOffset" : 633384
        },
        {
            "buffer" : 0,
            "byteLength" : 211128,
            "byteOffset" : 1055640
        },
        {
            "buffer" : 0,
            "byteLength" : 300012,
            "byteOffset" : 1266768
        },
        {
            "buffer" : 0,
            "byteLength" : 7596,
            "byteOffset" : 1566780
        }
    ],
    "buffers" : [
        {
            "byteLength" : 1574376,
            "uri" : "data:application/octet-stream;base64,"
        }
    ]
}
