{
    "asset" : {
        "generator" : "Khronos glTF Blender I/O v1.5.17",
        "version" : "2.0"
    },
    "scene" : 0,
    "scenes" : [
        {
            "name" : "Scene",
            "nodes" : [
                0
            ]
        }
    ],
    "nodes" : [
        {
            "mesh" : 0,
            "name" : "Icosphere"
        }
    ],
    "materials" : [
        {
            "doubleSided" : true,
            "emissiveFactor" : [
                0.0014330826776872418,
                0.02859225475238225,
                0.0024069586265409726
            ],
            "name" : "Foliage",
            "pbrMetallicRoughness" : {
                "baseColorFactor" : [
                    0.0026097691152244806,
                    0.014996682293713093,
                    0.002051296643912792,
                    1
                ],
                "metallicFactor" : 0
            }
        }
    ],
    "meshes" : [
        {
            "name" : "Icosphere",
            "primitives" : [
                {
                    "attributes" : {
                        "POSITION" : 0,
                        "NORMAL" : 1,
                        "TEXCOORD_0" : 2
                    },
                    "indices" : 3,
                    "material" : 0
                }
            ]
        }
    ],
    "accessors" : [
        {
            "bufferView" : 0,
            "componentType" : 5126,
            "count" : 1633,
            "max" : [
                1.3494021892547607,
                1.4180971384048462,
                1.3653801679611206
            ],
            "min" : [
                -1.4342937469482422,
                -1.4671827554702759,
                -1.4824618101119995
            ],
            "type" : "VEC3"
        },
        {
            "bufferView" : 1,
            "componentType" : 5126,
            "count" : 1633,
            "type" : "VEC3"
        },
        {
            "bufferView" : 2,
            "componentType" : 5126,
            "count" : 1633,
            "type" : "VEC2"
        },
        {
            "bufferView" : 3,
            "componentType" : 5123,
            "count" : 5760,
            "type" : "SCALAR"
        }
    ],
    "bufferViews" : [
        {
            "buffer" : 0,
            "byteLength" : 19596,
            "byteOffset" : 0
        },
        {
            "buffer" : 0,
            "byteLength" : 19596,
            "byteOffset" : 19596
        },
        {
            "buffer" : 0,
            "byteLength" : 13064,
            "byteOffset" : 39192
        },
        {
            "buffer" : 0,
            "byteLength" : 11520,
            "byteOffset" : 52256
        }
    ],
    "buffers" : [
        {
            "byteLength" : 63776,
            "uri" : "foliage_ball.bin"
        }
    ]
}
