{
    "asset" : {
        "generator" : "Khronos glTF Blender I/O v1.3.48",
        "version" : "2.0"
    },
    "scene" : 0,
    "scenes" : [
        {
            "name" : "Scene",
            "nodes" : [
                0,
                1
            ]
        }
    ],
    "nodes" : [
        {
            "mesh" : 0,
            "name" : "Bag",
            "rotation" : [
                0,
                0.5024627447128296,
                0,
                -0.8645988702774048
            ]
        },
        {
            "mesh" : 1,
            "name" : "PunchEffectMesh"
        }
    ],
    "materials" : [
        {
            "emissiveFactor" : [
                0,
                0,
                0
            ],
            "name" : "New Bag",
            "pbrMetallicRoughness" : {
                "baseColorTexture" : {
                    "index" : 0,
                    "texCoord" : 0
                },
                "metallicFactor" : 0.05000000074505806,
                "roughnessFactor" : 0.4000000059604645
            }
        },
        {
            "emissiveFactor" : [
                0,
                0,
                0
            ],
            "name" : "PunchEffect",
            "pbrMetallicRoughness" : {
                "baseColorTexture" : {
                    "index" : 1,
                    "texCoord" : 0
                },
                "metallicFactor" : 0,
                "roughnessFactor" : 1
            }
        }
    ],
    "meshes" : [
        {
            "name" : "Cylinder.001",
            "primitives" : [
                {
                    "attributes" : {
                        "POSITION" : 0,
                        "NORMAL" : 1,
                        "TEXCOORD_0" : 2
                    },
                    "indices" : 3,
                    "material" : 0
                }
            ]
        },
        {
            "name" : "Cylinder",
            "primitives" : [
                {
                    "attributes" : {
                        "POSITION" : 4,
                        "NORMAL" : 5,
                        "TEXCOORD_0" : 6
                    },
                    "indices" : 7,
                    "material" : 1
                }
            ]
        }
    ],
    "textures" : [
        {
            "source" : 0
        },
        {
            "source" : 1
        }
    ],
    "images" : [
        {
            "bufferView" : 4,
            "mimeType" : "image/png",
            "name" : "heavy_logo"
        },
        {
            "bufferView" : 9,
            "mimeType" : "image/png",
            "name" : "punch-impact"
        }
    ],
    "accessors" : [
        {
            "bufferView" : 0,
            "componentType" : 5126,
            "count" : 957,
            "max" : [
                0.25,
                0.49995943903923035,
                0.25
            ],
            "min" : [
                -0.25,
                -0.5,
                -0.25
            ],
            "type" : "VEC3"
        },
        {
            "bufferView" : 1,
            "componentType" : 5126,
            "count" : 957,
            "type" : "VEC3"
        },
        {
            "bufferView" : 2,
            "componentType" : 5126,
            "count" : 957,
            "type" : "VEC2"
        },
        {
            "bufferView" : 3,
            "componentType" : 5123,
            "count" : 4788,
            "type" : "SCALAR"
        },
        {
            "bufferView" : 5,
            "componentType" : 5126,
            "count" : 18,
            "max" : [
                0.2524833679199219,
                0.22208711504936218,
                0.17648403346538544
            ],
            "min" : [
                0.1764839142560959,
                -0.1262499988079071,
                -0.1805814951658249
            ],
            "type" : "VEC3"
        },
        {
            "bufferView" : 6,
            "componentType" : 5126,
            "count" : 18,
            "type" : "VEC3"
        },
        {
            "bufferView" : 7,
            "componentType" : 5126,
            "count" : 18,
            "type" : "VEC2"
        },
        {
            "bufferView" : 8,
            "componentType" : 5123,
            "count" : 48,
            "type" : "SCALAR"
        }
    ],
    "bufferViews" : [
        {
            "buffer" : 0,
            "byteLength" : 11484,
            "byteOffset" : 0
        },
        {
            "buffer" : 0,
            "byteLength" : 11484,
            "byteOffset" : 11484
        },
        {
            "buffer" : 0,
            "byteLength" : 7656,
            "byteOffset" : 22968
        },
        {
            "buffer" : 0,
            "byteLength" : 9576,
            "byteOffset" : 30624
        },
        {
            "buffer" : 0,
            "byteLength" : 8428,
            "byteOffset" : 40200
        },
        {
            "buffer" : 0,
            "byteLength" : 216,
            "byteOffset" : 48628
        },
        {
            "buffer" : 0,
            "byteLength" : 216,
            "byteOffset" : 48844
        },
        {
            "buffer" : 0,
            "byteLength" : 144,
            "byteOffset" : 49060
        },
        {
            "buffer" : 0,
            "byteLength" : 96,
            "byteOffset" : 49204
        },
        {
            "buffer" : 0,
            "byteLength" : 34095,
            "byteOffset" : 49300
        }
    ],
    "buffers" : [
        {
            "byteLength" : 83396,
            "uri" : "data:application/octet-stream;base64,"
        }
    ]
}
