{
    "asset" : {
        "generator" : "Khronos glTF Blender I/O v1.5.17",
        "version" : "2.0"
    },
    "scene" : 0,
    "scenes" : [
        {
            "name" : "Scene",
            "nodes" : [
                0
            ]
        }
    ],
    "nodes" : [
        {
            "mesh" : 0,
            "name" : "Bag",
            "rotation" : [
                0,
                0.9238795042037964,
                0,
                -0.38268351554870605
            ],
            "scale" : [
                0.9750000238418579,
                0.9750000238418579,
                0.9750000238418579
            ]
        }
    ],
    "materials" : [
        {
            "doubleSided" : true,
            "name" : "Ball",
            "pbrMetallicRoughness" : {
                "baseColorTexture" : {
                    "index" : 0
                },
                "metallicFactor" : 0,
                "roughnessFactor" : 0.23529410362243652
            }
        }
    ],
    "meshes" : [
        {
            "name" : "Sphere.002",
            "primitives" : [
                {
                    "attributes" : {
                        "POSITION" : 0,
                        "NORMAL" : 1,
                        "TEXCOORD_0" : 2
                    },
                    "indices" : 3,
                    "material" : 0
                }
            ]
        }
    ],
    "textures" : [
        {
            "sampler" : 0,
            "source" : 0
        }
    ],
    "images" : [
        {
            "bufferView" : 4,
            "mimeType" : "image/png",
            "name" : "heavy_logo"
        }
    ],
    "accessors" : [
        {
            "bufferView" : 0,
            "componentType" : 5126,
            "count" : 4356,
            "max" : [
                0.15060313045978546,
                0.1494467556476593,
                0.15060313045978546
            ],
            "min" : [
                -0.15060313045978546,
                -0.1494467407464981,
                -0.15060313045978546
            ],
            "type" : "VEC3"
        },
        {
            "bufferView" : 1,
            "componentType" : 5126,
            "count" : 4356,
            "type" : "VEC3"
        },
        {
            "bufferView" : 2,
            "componentType" : 5126,
            "count" : 4356,
            "type" : "VEC2"
        },
        {
            "bufferView" : 3,
            "componentType" : 5123,
            "count" : 18048,
            "type" : "SCALAR"
        }
    ],
    "bufferViews" : [
        {
            "buffer" : 0,
            "byteLength" : 52272,
            "byteOffset" : 0
        },
        {
            "buffer" : 0,
            "byteLength" : 52272,
            "byteOffset" : 52272
        },
        {
            "buffer" : 0,
            "byteLength" : 34848,
            "byteOffset" : 104544
        },
        {
            "buffer" : 0,
            "byteLength" : 36096,
            "byteOffset" : 139392
        },
        {
            "buffer" : 0,
            "byteLength" : 8428,
            "byteOffset" : 175488
        }
    ],
    "samplers" : [
        {
            "magFilter" : 9729,
            "minFilter" : 9987
        }
    ],
    "buffers" : [
        {
            "byteLength" : 183916,
            "uri" : "data:application/octet-stream;base64,"
        }
    ]
}
