{
    "asset" : {
        "generator" : "Khronos glTF Blender I/O v1.3.48",
        "version" : "2.0"
    },
    "scene" : 0,
    "scenes" : [
        {
            "name" : "Scene",
            "nodes" : [
                0
            ]
        }
    ],
    "nodes" : [
        {
            "mesh" : 0,
            "name" : "Left Glove",
            "rotation" : [
                0,
                -0.13052591681480408,
                0.9914448857307434,
                -2.5373878997925203e-07
            ],
            "scale" : [
                0.25,
                0.25,
                0.25
            ]
        }
    ],
    "materials" : [
        {
            "emissiveFactor" : [
                0,
                0,
                0
            ],
            "name" : "Material",
            "pbrMetallicRoughness" : {
                "baseColorFactor" : [
                    0.18427659571170807,
                    0.015283116139471531,
                    0.00328690349124372,
                    1
                ],
                "metallicFactor" : 0,
                "roughnessFactor" : 0.6000000238418579
            }
        }
    ],
    "meshes" : [
        {
            "name" : "Cube.003",
            "primitives" : [
                {
                    "attributes" : {
                        "POSITION" : 0,
                        "NORMAL" : 1
                    },
                    "indices" : 2,
                    "material" : 0
                }
            ]
        }
    ],
    "accessors" : [
        {
            "bufferView" : 0,
            "componentType" : 5126,
            "count" : 954,
            "max" : [
                0.3080829679965973,
                0.2992364764213562,
                0.3359436094760895
            ],
            "min" : [
                -0.33686691522598267,
                -1.0784896612167358,
                -0.4939567744731903
            ],
            "type" : "VEC3"
        },
        {
            "bufferView" : 1,
            "componentType" : 5126,
            "count" : 954,
            "type" : "VEC3"
        },
        {
            "bufferView" : 2,
            "componentType" : 5123,
            "count" : 5712,
            "type" : "SCALAR"
        }
    ],
    "bufferViews" : [
        {
            "buffer" : 0,
            "byteLength" : 11448,
            "byteOffset" : 0
        },
        {
            "buffer" : 0,
            "byteLength" : 11448,
            "byteOffset" : 11448
        },
        {
            "buffer" : 0,
            "byteLength" : 11424,
            "byteOffset" : 22896
        }
    ],
    "buffers" : [
        {
            "byteLength" : 34320,
            "uri" : "data:application/octet-stream;base64,"
        }
    ]
}
