{
    "asset" : {
        "generator" : "Khronos glTF Blender I/O v1.3.48",
        "version" : "2.0"
    },
    "scene" : 0,
    "scenes" : [
        {
            "name" : "Scene",
            "nodes" : [
                0,
                1,
                2,
                3,
                4,
                5,
                6,
                7,
                8,
                9
            ]
        }
    ],
    "nodes" : [
        {
            "name" : "Camera",
            "rotation" : [
                0.7071068286895752,
                0,
                0,
                0.7071068286895752
            ],
            "translation" : [
                0,
                2,
                0
            ]
        },
        {
            "name" : "Camera.001",
            "rotation" : [
                0.5,
                -0.5,
                0.5,
                0.4999999701976776
            ],
            "translation" : [
                0,
                2,
                0
            ]
        },
        {
            "mesh" : 0,
            "name" : "New Light",
            "rotation" : [
                0,
                -0.7071067690849304,
                0,
                0.7071068286895752
            ],
            "scale" : [
                0.25,
                0.07000000029802322,
                0.9999110102653503
            ],
            "translation" : [
                -1.9999998807907104,
                4.401462554931641,
                -1.0999999046325684
            ]
        },
        {
            "mesh" : 1,
            "name" : "TV",
            "rotation" : [
                0,
                -0.3420201539993286,
                0,
                0.9396927356719971
            ],
            "translation" : [
                2.1259958744049072,
                1.7078065872192383,
                -2.1132078170776367
            ]
        },
        {
            "mesh" : 2,
            "name" : "Screen",
            "rotation" : [
                0,
                -0.3420201539993286,
                0,
                0.9396927356719971
            ],
            "translation" : [
                2.1259958744049072,
                1.7078065872192383,
                -2.1132078170776367
            ]
        },
        {
            "mesh" : 3,
            "name" : "Room"
        },
        {
            "mesh" : 4,
            "name" : "Baseboard",
            "translation" : [
                0.6684257984161377,
                0.12868690490722656,
                1.3336296081542969
            ]
        },
        {
            "mesh" : 5,
            "name" : "AccentWall"
        },
        {
            "mesh" : 6,
            "name" : "Floor"
        },
        {
            "mesh" : 7,
            "name" : "Ceiling"
        }
    ],
    "materials" : [
        {
            "emissiveFactor" : [
                1,
                1,
                1
            ],
            "name" : "Emissive",
            "pbrMetallicRoughness" : {}
        },
        {
            "doubleSided" : true,
            "emissiveFactor" : [
                0,
                0,
                0
            ],
            "name" : "TV",
            "pbrMetallicRoughness" : {
                "baseColorFactor" : [
                    0.03922063112258911,
                    0.03922063112258911,
                    0.03922063112258911,
                    1
                ],
                "metallicFactor" : 0,
                "roughnessFactor" : 0.5
            }
        },
        {
            "doubleSided" : true,
            "emissiveFactor" : [
                1,
                1,
                1
            ],
            "name" : "TV Screen",
            "pbrMetallicRoughness" : {
                "baseColorFactor" : [
                    0.800000011920929,
                    0.800000011920929,
                    0.800000011920929,
                    1
                ],
                "metallicFactor" : 0,
                "roughnessFactor" : 0
            }
        },
        {
            "emissiveFactor" : [
                0,
                0,
                0
            ],
            "name" : "Walls",
            "pbrMetallicRoughness" : {
                "baseColorFactor" : [
                    0.6038274168968201,
                    0.6038274168968201,
                    0.6038274168968201,
                    1
                ],
                "metallicFactor" : 0,
                "roughnessFactor" : 0.5
            }
        },
        {
            "emissiveFactor" : [
                0,
                0,
                0
            ],
            "name" : "Baseboard",
            "pbrMetallicRoughness" : {
                "baseColorFactor" : [
                    0.16475583612918854,
                    0.16475583612918854,
                    0.16475583612918854,
                    1
                ],
                "metallicFactor" : 0,
                "roughnessFactor" : 0.5
            }
        },
        {
            "emissiveFactor" : [
                0,
                0,
                0
            ],
            "name" : "Accent.Wall",
            "pbrMetallicRoughness" : {
                "baseColorFactor" : [
                    0.10984731465578079,
                    0.008467921987175941,
                    0.009693939238786697,
                    1
                ],
                "metallicFactor" : 0,
                "roughnessFactor" : 0.5
            }
        },
        {
            "doubleSided" : true,
            "emissiveFactor" : [
                0,
                0,
                0
            ],
            "name" : "Floor",
            "normalTexture" : {
                "index" : 0,
                "texCoord" : 0
            },
            "pbrMetallicRoughness" : {
                "baseColorTexture" : {
                    "index" : 1,
                    "texCoord" : 0
                },
                "metallicFactor" : 0,
                "metallicRoughnessTexture" : {
                    "index" : 2,
                    "texCoord" : 0
                }
            }
        },
        {
            "emissiveFactor" : [
                0,
                0,
                0
            ],
            "name" : "Ceiling",
            "pbrMetallicRoughness" : {
                "baseColorFactor" : [
                    0.010230540297925472,
                    0.010230540297925472,
                    0.010230540297925472,
                    1
                ],
                "metallicFactor" : 0,
                "roughnessFactor" : 0.5
            }
        }
    ],
    "meshes" : [
        {
            "name" : "Cube.023",
            "primitives" : [
                {
                    "attributes" : {
                        "POSITION" : 0,
                        "NORMAL" : 1,
                        "TANGENT" : 2,
                        "TEXCOORD_0" : 3
                    },
                    "indices" : 4,
                    "material" : 0
                }
            ]
        },
        {
            "name" : "Cube",
            "primitives" : [
                {
                    "attributes" : {
                        "POSITION" : 5,
                        "NORMAL" : 6,
                        "TANGENT" : 7,
                        "TEXCOORD_0" : 8,
                        "TEXCOORD_1" : 9
                    },
                    "indices" : 10,
                    "material" : 1
                }
            ]
        },
        {
            "name" : "Cube.001",
            "primitives" : [
                {
                    "attributes" : {
                        "POSITION" : 11,
                        "NORMAL" : 12,
                        "TANGENT" : 13,
                        "TEXCOORD_0" : 14
                    },
                    "indices" : 15,
                    "material" : 2
                }
            ]
        },
        {
            "name" : "Cube.012",
            "primitives" : [
                {
                    "attributes" : {
                        "POSITION" : 16,
                        "NORMAL" : 17,
                        "TANGENT" : 18,
                        "TEXCOORD_0" : 19,
                        "TEXCOORD_1" : 20
                    },
                    "indices" : 21,
                    "material" : 3
                }
            ]
        },
        {
            "name" : "Cube.013",
            "primitives" : [
                {
                    "attributes" : {
                        "POSITION" : 22,
                        "NORMAL" : 23,
                        "TANGENT" : 24,
                        "TEXCOORD_0" : 25,
                        "TEXCOORD_1" : 26
                    },
                    "indices" : 27,
                    "material" : 4
                }
            ]
        },
        {
            "name" : "Cube.014",
            "primitives" : [
                {
                    "attributes" : {
                        "POSITION" : 28,
                        "NORMAL" : 29,
                        "TANGENT" : 30,
                        "TEXCOORD_0" : 31,
                        "TEXCOORD_1" : 32
                    },
                    "indices" : 33,
                    "material" : 5
                }
            ]
        },
        {
            "name" : "Cube.015",
            "primitives" : [
                {
                    "attributes" : {
                        "POSITION" : 34,
                        "NORMAL" : 35,
                        "TANGENT" : 36,
                        "TEXCOORD_0" : 37,
                        "TEXCOORD_1" : 38
                    },
                    "indices" : 39,
                    "material" : 6
                }
            ]
        },
        {
            "name" : "Cube.016",
            "primitives" : [
                {
                    "attributes" : {
                        "POSITION" : 40,
                        "NORMAL" : 41,
                        "TANGENT" : 42,
                        "TEXCOORD_0" : 43,
                        "TEXCOORD_1" : 44
                    },
                    "indices" : 45,
                    "material" : 7
                }
            ]
        }
    ],
    "textures" : [
        {
            "source" : 0
        },
        {
            "source" : 1
        },
        {
            "source" : 2
        }
    ],
    "images" : [
        {
            "mimeType" : "image/png",
            "name" : "WoodFloor041_1K_Normal",
            "uri" : "WoodFloor041_1K_Normal.png"
        },
        {
            "mimeType" : "image/basis",
            "name" : "WoodFloor041_1K_Color",
            "uri" : "WoodFloor041_1K_Color.basis"
        },
        {
            "mimeType" : "image/basis",
            "name" : "WoodFloor041_1K_Roughness",
            "uri" : "WoodFloor041_1K_Roughness.basis"
        }
    ],
    "accessors" : [
        {
            "bufferView" : 0,
            "componentType" : 5126,
            "count" : 304,
            "max" : [
                24.080028533935547,
                -0.4285714626312256,
                1.1639037132263184
            ],
            "min" : [
                -0.5600000619888306,
                -1.368628978729248,
                -5.164259433746338
            ],
            "type" : "VEC3"
        },
        {
            "bufferView" : 1,
            "componentType" : 5126,
            "count" : 304,
            "type" : "VEC3"
        },
        {
            "bufferView" : 2,
            "componentType" : 5126,
            "count" : 304,
            "type" : "VEC4"
        },
        {
            "bufferView" : 3,
            "componentType" : 5126,
            "count" : 304,
            "type" : "VEC2"
        },
        {
            "bufferView" : 4,
            "componentType" : 5123,
            "count" : 456,
            "type" : "SCALAR"
        },
        {
            "bufferView" : 5,
            "componentType" : 5126,
            "count" : 152,
            "max" : [
                0.8674992322921753,
                0.5203953981399536,
                0.010407908819615841
            ],
            "min" : [
                -0.8674992322921753,
                -1.7439786195755005,
                -0.6707072854042053
            ],
            "type" : "VEC3"
        },
        {
            "bufferView" : 6,
            "componentType" : 5126,
            "count" : 152,
            "type" : "VEC3"
        },
        {
            "bufferView" : 7,
            "componentType" : 5126,
            "count" : 152,
            "type" : "VEC4"
        },
        {
            "bufferView" : 8,
            "componentType" : 5126,
            "count" : 152,
            "type" : "VEC2"
        },
        {
            "bufferView" : 9,
            "componentType" : 5126,
            "count" : 152,
            "type" : "VEC2"
        },
        {
            "bufferView" : 10,
            "componentType" : 5123,
            "count" : 222,
            "type" : "SCALAR"
        },
        {
            "bufferView" : 11,
            "componentType" : 5126,
            "count" : 4,
            "max" : [
                0.8552309274673462,
                0.5106055736541748,
                -0.001098489505238831
            ],
            "min" : [
                -0.8552309274673462,
                -0.5106055736541748,
                -0.001098489505238831
            ],
            "type" : "VEC3"
        },
        {
            "bufferView" : 12,
            "componentType" : 5126,
            "count" : 4,
            "type" : "VEC3"
        },
        {
            "bufferView" : 13,
            "componentType" : 5126,
            "count" : 4,
            "type" : "VEC4"
        },
        {
            "bufferView" : 14,
            "componentType" : 5126,
            "count" : 4,
            "type" : "VEC2"
        },
        {
            "bufferView" : 15,
            "componentType" : 5123,
            "count" : 6,
            "type" : "SCALAR"
        },
        {
            "bufferView" : 16,
            "componentType" : 5126,
            "count" : 86,
            "max" : [
                7,
                4,
                6
            ],
            "min" : [
                -4,
                0,
                -4
            ],
            "type" : "VEC3"
        },
        {
            "bufferView" : 17,
            "componentType" : 5126,
            "count" : 86,
            "type" : "VEC3"
        },
        {
            "bufferView" : 18,
            "componentType" : 5126,
            "count" : 86,
            "type" : "VEC4"
        },
        {
            "bufferView" : 19,
            "componentType" : 5126,
            "count" : 86,
            "type" : "VEC2"
        },
        {
            "bufferView" : 20,
            "componentType" : 5126,
            "count" : 86,
            "type" : "VEC2"
        },
        {
            "bufferView" : 21,
            "componentType" : 5123,
            "count" : 204,
            "type" : "SCALAR"
        },
        {
            "bufferView" : 22,
            "componentType" : 5126,
            "count" : 94,
            "max" : [
                6.373785972595215,
                0.08726119995117188,
                4.705373764038086
            ],
            "min" : [
                -4.825345993041992,
                -0.12868690490722656,
                -5.379011154174805
            ],
            "type" : "VEC3"
        },
        {
            "bufferView" : 23,
            "componentType" : 5126,
            "count" : 94,
            "type" : "VEC3"
        },
        {
            "bufferView" : 24,
            "componentType" : 5126,
            "count" : 94,
            "type" : "VEC4"
        },
        {
            "bufferView" : 25,
            "componentType" : 5126,
            "count" : 94,
            "type" : "VEC2"
        },
        {
            "bufferView" : 26,
            "componentType" : 5126,
            "count" : 94,
            "type" : "VEC2"
        },
        {
            "bufferView" : 27,
            "componentType" : 5123,
            "count" : 144,
            "type" : "SCALAR"
        },
        {
            "bufferView" : 28,
            "componentType" : 5126,
            "count" : 10,
            "max" : [
                4,
                4,
                -4
            ],
            "min" : [
                -4,
                0,
                -4
            ],
            "type" : "VEC3"
        },
        {
            "bufferView" : 29,
            "componentType" : 5126,
            "count" : 10,
            "type" : "VEC3"
        },
        {
            "bufferView" : 30,
            "componentType" : 5126,
            "count" : 10,
            "type" : "VEC4"
        },
        {
            "bufferView" : 31,
            "componentType" : 5126,
            "count" : 10,
            "type" : "VEC2"
        },
        {
            "bufferView" : 32,
            "componentType" : 5126,
            "count" : 10,
            "type" : "VEC2"
        },
        {
            "bufferView" : 33,
            "componentType" : 5123,
            "count" : 18,
            "type" : "SCALAR"
        },
        {
            "bufferView" : 34,
            "componentType" : 5126,
            "count" : 12,
            "max" : [
                7,
                0,
                6
            ],
            "min" : [
                -4,
                0,
                -4
            ],
            "type" : "VEC3"
        },
        {
            "bufferView" : 35,
            "componentType" : 5126,
            "count" : 12,
            "type" : "VEC3"
        },
        {
            "bufferView" : 36,
            "componentType" : 5126,
            "count" : 12,
            "type" : "VEC4"
        },
        {
            "bufferView" : 37,
            "componentType" : 5126,
            "count" : 12,
            "type" : "VEC2"
        },
        {
            "bufferView" : 38,
            "componentType" : 5126,
            "count" : 12,
            "type" : "VEC2"
        },
        {
            "bufferView" : 39,
            "componentType" : 5123,
            "count" : 30,
            "type" : "SCALAR"
        },
        {
            "bufferView" : 40,
            "componentType" : 5126,
            "count" : 36,
            "max" : [
                7,
                5,
                6
            ],
            "min" : [
                -4,
                3,
                -4
            ],
            "type" : "VEC3"
        },
        {
            "bufferView" : 41,
            "componentType" : 5126,
            "count" : 36,
            "type" : "VEC3"
        },
        {
            "bufferView" : 42,
            "componentType" : 5126,
            "count" : 36,
            "type" : "VEC4"
        },
        {
            "bufferView" : 43,
            "componentType" : 5126,
            "count" : 36,
            "type" : "VEC2"
        },
        {
            "bufferView" : 44,
            "componentType" : 5126,
            "count" : 36,
            "type" : "VEC2"
        },
        {
            "bufferView" : 45,
            "componentType" : 5123,
            "count" : 72,
            "type" : "SCALAR"
        }
    ],
    "bufferViews" : [
        {
            "buffer" : 0,
            "byteLength" : 3648,
            "byteOffset" : 0
        },
        {
            "buffer" : 0,
            "byteLength" : 3648,
            "byteOffset" : 3648
        },
        {
            "buffer" : 0,
            "byteLength" : 4864,
            "byteOffset" : 7296
        },
        {
            "buffer" : 0,
            "byteLength" : 2432,
            "byteOffset" : 12160
        },
        {
            "buffer" : 0,
            "byteLength" : 912,
            "byteOffset" : 14592
        },
        {
            "buffer" : 0,
            "byteLength" : 1824,
            "byteOffset" : 15504
        },
        {
            "buffer" : 0,
            "byteLength" : 1824,
            "byteOffset" : 17328
        },
        {
            "buffer" : 0,
            "byteLength" : 2432,
            "byteOffset" : 19152
        },
        {
            "buffer" : 0,
            "byteLength" : 1216,
            "byteOffset" : 21584
        },
        {
            "buffer" : 0,
            "byteLength" : 1216,
            "byteOffset" : 22800
        },
        {
            "buffer" : 0,
            "byteLength" : 444,
            "byteOffset" : 24016
        },
        {
            "buffer" : 0,
            "byteLength" : 48,
            "byteOffset" : 24460
        },
        {
            "buffer" : 0,
            "byteLength" : 48,
            "byteOffset" : 24508
        },
        {
            "buffer" : 0,
            "byteLength" : 64,
            "byteOffset" : 24556
        },
        {
            "buffer" : 0,
            "byteLength" : 32,
            "byteOffset" : 24620
        },
        {
            "buffer" : 0,
            "byteLength" : 12,
            "byteOffset" : 24652
        },
        {
            "buffer" : 0,
            "byteLength" : 1032,
            "byteOffset" : 24664
        },
        {
            "buffer" : 0,
            "byteLength" : 1032,
            "byteOffset" : 25696
        },
        {
            "buffer" : 0,
            "byteLength" : 1376,
            "byteOffset" : 26728
        },
        {
            "buffer" : 0,
            "byteLength" : 688,
            "byteOffset" : 28104
        },
        {
            "buffer" : 0,
            "byteLength" : 688,
            "byteOffset" : 28792
        },
        {
            "buffer" : 0,
            "byteLength" : 408,
            "byteOffset" : 29480
        },
        {
            "buffer" : 0,
            "byteLength" : 1128,
            "byteOffset" : 29888
        },
        {
            "buffer" : 0,
            "byteLength" : 1128,
            "byteOffset" : 31016
        },
        {
            "buffer" : 0,
            "byteLength" : 1504,
            "byteOffset" : 32144
        },
        {
            "buffer" : 0,
            "byteLength" : 752,
            "byteOffset" : 33648
        },
        {
            "buffer" : 0,
            "byteLength" : 752,
            "byteOffset" : 34400
        },
        {
            "buffer" : 0,
            "byteLength" : 288,
            "byteOffset" : 35152
        },
        {
            "buffer" : 0,
            "byteLength" : 120,
            "byteOffset" : 35440
        },
        {
            "buffer" : 0,
            "byteLength" : 120,
            "byteOffset" : 35560
        },
        {
            "buffer" : 0,
            "byteLength" : 160,
            "byteOffset" : 35680
        },
        {
            "buffer" : 0,
            "byteLength" : 80,
            "byteOffset" : 35840
        },
        {
            "buffer" : 0,
            "byteLength" : 80,
            "byteOffset" : 35920
        },
        {
            "buffer" : 0,
            "byteLength" : 36,
            "byteOffset" : 36000
        },
        {
            "buffer" : 0,
            "byteLength" : 144,
            "byteOffset" : 36036
        },
        {
            "buffer" : 0,
            "byteLength" : 144,
            "byteOffset" : 36180
        },
        {
            "buffer" : 0,
            "byteLength" : 192,
            "byteOffset" : 36324
        },
        {
            "buffer" : 0,
            "byteLength" : 96,
            "byteOffset" : 36516
        },
        {
            "buffer" : 0,
            "byteLength" : 96,
            "byteOffset" : 36612
        },
        {
            "buffer" : 0,
            "byteLength" : 60,
            "byteOffset" : 36708
        },
        {
            "buffer" : 0,
            "byteLength" : 432,
            "byteOffset" : 36768
        },
        {
            "buffer" : 0,
            "byteLength" : 432,
            "byteOffset" : 37200
        },
        {
            "buffer" : 0,
            "byteLength" : 576,
            "byteOffset" : 37632
        },
        {
            "buffer" : 0,
            "byteLength" : 288,
            "byteOffset" : 38208
        },
        {
            "buffer" : 0,
            "byteLength" : 288,
            "byteOffset" : 38496
        },
        {
            "buffer" : 0,
            "byteLength" : 144,
            "byteOffset" : 38784
        }
    ],
    "buffers" : [
        {
            "byteLength" : 38928,
            "uri" : "gym_v8.bin"
        }
    ]
}
