{
    "asset" : {
        "generator" : "Khronos glTF Blender I/O v1.3.48",
        "version" : "2.0"
    },
    "scene" : 0,
    "scenes" : [
        {
            "name" : "Scene",
            "nodes" : [
                0,
                1,
                2,
                3,
                4,
                5,
                6,
                7,
                8,
                9
            ]
        }
    ],
    "nodes" : [
        {
            "name" : "Camera",
            "rotation" : [
                0.7071068286895752,
                0,
                0,
                0.7071068286895752
            ],
            "translation" : [
                0,
                2,
                0
            ]
        },
        {
            "name" : "Camera.001",
            "rotation" : [
                0.5,
                -0.5,
                0.5,
                0.4999999701976776
            ],
            "translation" : [
                0,
                2,
                0
            ]
        },
        {
            "mesh" : 0,
            "name" : "New Light",
            "rotation" : [
                0,
                -0.7071067690849304,
                0,
                0.7071068286895752
            ],
            "scale" : [
                0.25,
                0.07000000029802322,
                0.9999110102653503
            ],
            "translation" : [
                -1.9999998807907104,
                4.401462554931641,
                -1.0999999046325684
            ]
        },
        {
            "mesh" : 1,
            "name" : "TV",
            "rotation" : [
                0,
                -0.3420201539993286,
                0,
                0.9396927356719971
            ],
            "translation" : [
                2.1259958744049072,
                1.7078065872192383,
                -2.1132078170776367
            ]
        },
        {
            "mesh" : 2,
            "name" : "Screen",
            "rotation" : [
                0,
                -0.3420201539993286,
                0,
                0.9396927356719971
            ],
            "translation" : [
                2.1259958744049072,
                1.7078065872192383,
                -2.1132078170776367
            ]
        },
        {
            "mesh" : 3,
            "name" : "Room"
        },
        {
            "mesh" : 4,
            "name" : "Baseboard",
            "translation" : [
                0.6684257984161377,
                0.12868690490722656,
                1.3336296081542969
            ]
        },
        {
            "mesh" : 5,
            "name" : "AccentWall"
        },
        {
            "mesh" : 6,
            "name" : "Floor"
        },
        {
            "mesh" : 7,
            "name" : "Ceiling"
        }
    ],
    "materials" : [
        {
            "emissiveFactor" : [
                1,
                1,
                1
            ],
            "name" : "Emissive",
            "pbrMetallicRoughness" : {}
        },
        {
            "doubleSided" : true,
            "emissiveFactor" : [
                0,
                0,
                0
            ],
            "name" : "TV",
            "pbrMetallicRoughness" : {
                "baseColorFactor" : [
                    0.03922063112258911,
                    0.03922063112258911,
                    0.03922063112258911,
                    1
                ],
                "metallicFactor" : 0,
                "roughnessFactor" : 0.5
            }
        },
        {
            "doubleSided" : true,
            "emissiveFactor" : [
                0.26536399126052856,
                0.26536399126052856,
                0.26536399126052856
            ],
            "name" : "TV Screen",
            "pbrMetallicRoughness" : {
                "baseColorFactor" : [
                    0.800000011920929,
                    0.800000011920929,
                    0.800000011920929,
                    1
                ],
                "metallicFactor" : 0,
                "roughnessFactor" : 0
            }
        },
        {
            "emissiveFactor" : [
                0,
                0,
                0
            ],
            "name" : "Walls",
            "pbrMetallicRoughness" : {
                "baseColorFactor" : [
                    0.6038274168968201,
                    0.6038274168968201,
                    0.6038274168968201,
                    1
                ],
                "metallicFactor" : 0,
                "roughnessFactor" : 0.5
            }
        },
        {
            "emissiveFactor" : [
                0,
                0,
                0
            ],
            "name" : "Baseboard",
            "pbrMetallicRoughness" : {
                "baseColorFactor" : [
                    0.16475583612918854,
                    0.16475583612918854,
                    0.16475583612918854,
                    1
                ],
                "metallicFactor" : 0,
                "roughnessFactor" : 0.5
            }
        },
        {
            "emissiveFactor" : [
                0,
                0,
                0
            ],
            "name" : "Accent.Wall",
            "pbrMetallicRoughness" : {
                "baseColorFactor" : [
                    0.10984731465578079,
                    0.008467921987175941,
                    0.009693939238786697,
                    1
                ],
                "metallicFactor" : 0,
                "roughnessFactor" : 0.5
            }
        },
        {
            "doubleSided" : true,
            "emissiveFactor" : [
                0,
                0,
                0
            ],
            "name" : "Floor",
            "pbrMetallicRoughness" : {
                "baseColorFactor" : [
                    0.05087608844041824,
                    0.05087608844041824,
                    0.05087608844041824,
                    1
                ],
                "metallicFactor" : 0,
                "roughnessFactor" : 0.5
            }
        },
        {
            "emissiveFactor" : [
                0,
                0,
                0
            ],
            "name" : "Ceiling",
            "pbrMetallicRoughness" : {
                "baseColorFactor" : [
                    0.010230540297925472,
                    0.010230540297925472,
                    0.010230540297925472,
                    1
                ],
                "metallicFactor" : 0,
                "roughnessFactor" : 0.5
            }
        }
    ],
    "meshes" : [
        {
            "name" : "Cube.023",
            "primitives" : [
                {
                    "attributes" : {
                        "POSITION" : 0,
                        "NORMAL" : 1,
                        "TEXCOORD_0" : 2
                    },
                    "indices" : 3,
                    "material" : 0
                }
            ]
        },
        {
            "name" : "Cube",
            "primitives" : [
                {
                    "attributes" : {
                        "POSITION" : 4,
                        "NORMAL" : 5,
                        "TEXCOORD_0" : 6,
                        "TEXCOORD_1" : 7
                    },
                    "indices" : 8,
                    "material" : 1
                }
            ]
        },
        {
            "name" : "Cube.001",
            "primitives" : [
                {
                    "attributes" : {
                        "POSITION" : 9,
                        "NORMAL" : 10,
                        "TEXCOORD_0" : 11
                    },
                    "indices" : 12,
                    "material" : 2
                }
            ]
        },
        {
            "name" : "Cube.012",
            "primitives" : [
                {
                    "attributes" : {
                        "POSITION" : 13,
                        "NORMAL" : 14,
                        "TEXCOORD_0" : 15,
                        "TEXCOORD_1" : 16
                    },
                    "indices" : 17,
                    "material" : 3
                }
            ]
        },
        {
            "name" : "Cube.013",
            "primitives" : [
                {
                    "attributes" : {
                        "POSITION" : 18,
                        "NORMAL" : 19,
                        "TEXCOORD_0" : 20,
                        "TEXCOORD_1" : 21
                    },
                    "indices" : 22,
                    "material" : 4
                }
            ]
        },
        {
            "name" : "Cube.014",
            "primitives" : [
                {
                    "attributes" : {
                        "POSITION" : 23,
                        "NORMAL" : 24,
                        "TEXCOORD_0" : 25,
                        "TEXCOORD_1" : 26
                    },
                    "indices" : 27,
                    "material" : 5
                }
            ]
        },
        {
            "name" : "Cube.015",
            "primitives" : [
                {
                    "attributes" : {
                        "POSITION" : 28,
                        "NORMAL" : 29,
                        "TEXCOORD_0" : 30,
                        "TEXCOORD_1" : 31
                    },
                    "indices" : 32,
                    "material" : 6
                }
            ]
        },
        {
            "name" : "Cube.016",
            "primitives" : [
                {
                    "attributes" : {
                        "POSITION" : 33,
                        "NORMAL" : 34,
                        "TEXCOORD_0" : 35,
                        "TEXCOORD_1" : 36
                    },
                    "indices" : 37,
                    "material" : 7
                }
            ]
        }
    ],
    "accessors" : [
        {
            "bufferView" : 0,
            "componentType" : 5126,
            "count" : 296,
            "max" : [
                24.080028533935547,
                -0.4285714626312256,
                1.1639037132263184
            ],
            "min" : [
                -0.5600000619888306,
                -1.368628978729248,
                -5.164259433746338
            ],
            "type" : "VEC3"
        },
        {
            "bufferView" : 1,
            "componentType" : 5126,
            "count" : 296,
            "type" : "VEC3"
        },
        {
            "bufferView" : 2,
            "componentType" : 5126,
            "count" : 296,
            "type" : "VEC2"
        },
        {
            "bufferView" : 3,
            "componentType" : 5123,
            "count" : 456,
            "type" : "SCALAR"
        },
        {
            "bufferView" : 4,
            "componentType" : 5126,
            "count" : 152,
            "max" : [
                0.8674992322921753,
                0.5203953981399536,
                0.010407908819615841
            ],
            "min" : [
                -0.8674992322921753,
                -1.7439786195755005,
                -0.6707072854042053
            ],
            "type" : "VEC3"
        },
        {
            "bufferView" : 5,
            "componentType" : 5126,
            "count" : 152,
            "type" : "VEC3"
        },
        {
            "bufferView" : 6,
            "componentType" : 5126,
            "count" : 152,
            "type" : "VEC2"
        },
        {
            "bufferView" : 7,
            "componentType" : 5126,
            "count" : 152,
            "type" : "VEC2"
        },
        {
            "bufferView" : 8,
            "componentType" : 5123,
            "count" : 222,
            "type" : "SCALAR"
        },
        {
            "bufferView" : 9,
            "componentType" : 5126,
            "count" : 4,
            "max" : [
                0.8552309274673462,
                0.5106055736541748,
                -0.001098489505238831
            ],
            "min" : [
                -0.8552309274673462,
                -0.5106055736541748,
                -0.001098489505238831
            ],
            "type" : "VEC3"
        },
        {
            "bufferView" : 10,
            "componentType" : 5126,
            "count" : 4,
            "type" : "VEC3"
        },
        {
            "bufferView" : 11,
            "componentType" : 5126,
            "count" : 4,
            "type" : "VEC2"
        },
        {
            "bufferView" : 12,
            "componentType" : 5123,
            "count" : 6,
            "type" : "SCALAR"
        },
        {
            "bufferView" : 13,
            "componentType" : 5126,
            "count" : 86,
            "max" : [
                7,
                4,
                6
            ],
            "min" : [
                -4,
                0,
                -4
            ],
            "type" : "VEC3"
        },
        {
            "bufferView" : 14,
            "componentType" : 5126,
            "count" : 86,
            "type" : "VEC3"
        },
        {
            "bufferView" : 15,
            "componentType" : 5126,
            "count" : 86,
            "type" : "VEC2"
        },
        {
            "bufferView" : 16,
            "componentType" : 5126,
            "count" : 86,
            "type" : "VEC2"
        },
        {
            "bufferView" : 17,
            "componentType" : 5123,
            "count" : 204,
            "type" : "SCALAR"
        },
        {
            "bufferView" : 18,
            "componentType" : 5126,
            "count" : 94,
            "max" : [
                6.373785972595215,
                0.08726119995117188,
                4.705373764038086
            ],
            "min" : [
                -4.825345993041992,
                -0.12868690490722656,
                -5.379011154174805
            ],
            "type" : "VEC3"
        },
        {
            "bufferView" : 19,
            "componentType" : 5126,
            "count" : 94,
            "type" : "VEC3"
        },
        {
            "bufferView" : 20,
            "componentType" : 5126,
            "count" : 94,
            "type" : "VEC2"
        },
        {
            "bufferView" : 21,
            "componentType" : 5126,
            "count" : 94,
            "type" : "VEC2"
        },
        {
            "bufferView" : 22,
            "componentType" : 5123,
            "count" : 144,
            "type" : "SCALAR"
        },
        {
            "bufferView" : 23,
            "componentType" : 5126,
            "count" : 10,
            "max" : [
                4,
                4,
                -4
            ],
            "min" : [
                -4,
                0,
                -4
            ],
            "type" : "VEC3"
        },
        {
            "bufferView" : 24,
            "componentType" : 5126,
            "count" : 10,
            "type" : "VEC3"
        },
        {
            "bufferView" : 25,
            "componentType" : 5126,
            "count" : 10,
            "type" : "VEC2"
        },
        {
            "bufferView" : 26,
            "componentType" : 5126,
            "count" : 10,
            "type" : "VEC2"
        },
        {
            "bufferView" : 27,
            "componentType" : 5123,
            "count" : 18,
            "type" : "SCALAR"
        },
        {
            "bufferView" : 28,
            "componentType" : 5126,
            "count" : 14,
            "max" : [
                7,
                0,
                6
            ],
            "min" : [
                -4,
                0,
                -4
            ],
            "type" : "VEC3"
        },
        {
            "bufferView" : 29,
            "componentType" : 5126,
            "count" : 14,
            "type" : "VEC3"
        },
        {
            "bufferView" : 30,
            "componentType" : 5126,
            "count" : 14,
            "type" : "VEC2"
        },
        {
            "bufferView" : 31,
            "componentType" : 5126,
            "count" : 14,
            "type" : "VEC2"
        },
        {
            "bufferView" : 32,
            "componentType" : 5123,
            "count" : 30,
            "type" : "SCALAR"
        },
        {
            "bufferView" : 33,
            "componentType" : 5126,
            "count" : 36,
            "max" : [
                7,
                5,
                6
            ],
            "min" : [
                -4,
                3,
                -4
            ],
            "type" : "VEC3"
        },
        {
            "bufferView" : 34,
            "componentType" : 5126,
            "count" : 36,
            "type" : "VEC3"
        },
        {
            "bufferView" : 35,
            "componentType" : 5126,
            "count" : 36,
            "type" : "VEC2"
        },
        {
            "bufferView" : 36,
            "componentType" : 5126,
            "count" : 36,
            "type" : "VEC2"
        },
        {
            "bufferView" : 37,
            "componentType" : 5123,
            "count" : 72,
            "type" : "SCALAR"
        }
    ],
    "bufferViews" : [
        {
            "buffer" : 0,
            "byteLength" : 3552,
            "byteOffset" : 0
        },
        {
            "buffer" : 0,
            "byteLength" : 3552,
            "byteOffset" : 3552
        },
        {
            "buffer" : 0,
            "byteLength" : 2368,
            "byteOffset" : 7104
        },
        {
            "buffer" : 0,
            "byteLength" : 912,
            "byteOffset" : 9472
        },
        {
            "buffer" : 0,
            "byteLength" : 1824,
            "byteOffset" : 10384
        },
        {
            "buffer" : 0,
            "byteLength" : 1824,
            "byteOffset" : 12208
        },
        {
            "buffer" : 0,
            "byteLength" : 1216,
            "byteOffset" : 14032
        },
        {
            "buffer" : 0,
            "byteLength" : 1216,
            "byteOffset" : 15248
        },
        {
            "buffer" : 0,
            "byteLength" : 444,
            "byteOffset" : 16464
        },
        {
            "buffer" : 0,
            "byteLength" : 48,
            "byteOffset" : 16908
        },
        {
            "buffer" : 0,
            "byteLength" : 48,
            "byteOffset" : 16956
        },
        {
            "buffer" : 0,
            "byteLength" : 32,
            "byteOffset" : 17004
        },
        {
            "buffer" : 0,
            "byteLength" : 12,
            "byteOffset" : 17036
        },
        {
            "buffer" : 0,
            "byteLength" : 1032,
            "byteOffset" : 17048
        },
        {
            "buffer" : 0,
            "byteLength" : 1032,
            "byteOffset" : 18080
        },
        {
            "buffer" : 0,
            "byteLength" : 688,
            "byteOffset" : 19112
        },
        {
            "buffer" : 0,
            "byteLength" : 688,
            "byteOffset" : 19800
        },
        {
            "buffer" : 0,
            "byteLength" : 408,
            "byteOffset" : 20488
        },
        {
            "buffer" : 0,
            "byteLength" : 1128,
            "byteOffset" : 20896
        },
        {
            "buffer" : 0,
            "byteLength" : 1128,
            "byteOffset" : 22024
        },
        {
            "buffer" : 0,
            "byteLength" : 752,
            "byteOffset" : 23152
        },
        {
            "buffer" : 0,
            "byteLength" : 752,
            "byteOffset" : 23904
        },
        {
            "buffer" : 0,
            "byteLength" : 288,
            "byteOffset" : 24656
        },
        {
            "buffer" : 0,
            "byteLength" : 120,
            "byteOffset" : 24944
        },
        {
            "buffer" : 0,
            "byteLength" : 120,
            "byteOffset" : 25064
        },
        {
            "buffer" : 0,
            "byteLength" : 80,
            "byteOffset" : 25184
        },
        {
            "buffer" : 0,
            "byteLength" : 80,
            "byteOffset" : 25264
        },
        {
            "buffer" : 0,
            "byteLength" : 36,
            "byteOffset" : 25344
        },
        {
            "buffer" : 0,
            "byteLength" : 168,
            "byteOffset" : 25380
        },
        {
            "buffer" : 0,
            "byteLength" : 168,
            "byteOffset" : 25548
        },
        {
            "buffer" : 0,
            "byteLength" : 112,
            "byteOffset" : 25716
        },
        {
            "buffer" : 0,
            "byteLength" : 112,
            "byteOffset" : 25828
        },
        {
            "buffer" : 0,
            "byteLength" : 60,
            "byteOffset" : 25940
        },
        {
            "buffer" : 0,
            "byteLength" : 432,
            "byteOffset" : 26000
        },
        {
            "buffer" : 0,
            "byteLength" : 432,
            "byteOffset" : 26432
        },
        {
            "buffer" : 0,
            "byteLength" : 288,
            "byteOffset" : 26864
        },
        {
            "buffer" : 0,
            "byteLength" : 288,
            "byteOffset" : 27152
        },
        {
            "buffer" : 0,
            "byteLength" : 144,
            "byteOffset" : 27440
        }
    ],
    "buffers" : [
        {
            "byteLength" : 27584,
            "uri" : "data:application/octet-stream;base64,"
        }
    ]
}
