{
    "asset" : {
        "generator" : "Khronos glTF Blender I/O v1.3.48",
        "version" : "2.0"
    },
    "scene" : 0,
    "scenes" : [
        {
            "name" : "Scene",
            "nodes" : [
                0,
                1,
                2,
                3,
                4,
                5,
                6
            ]
        }
    ],
    "nodes" : [
        {
            "name" : "Light",
            "rotation" : [
                0.16907575726509094,
                0.7558803558349609,
                -0.27217137813568115,
                0.570947527885437
            ],
            "translation" : [
                4.076245307922363,
                5.903861999511719,
                -1.0054539442062378
            ]
        },
        {
            "name" : "Camera",
            "rotation" : [
                0.7071068286895752,
                0,
                0,
                0.7071068286895752
            ],
            "translation" : [
                0,
                2,
                0
            ]
        },
        {
            "mesh" : 0,
            "name" : "Cube",
            "scale" : [
                2,
                2,
                2
            ],
            "translation" : [
                0,
                4,
                0
            ]
        },
        {
            "mesh" : 1,
            "name" : "Cylinder",
            "rotation" : [
                0,
                0,
                0.7071067690849304,
                0.7071068286895752
            ],
            "scale" : [
                1,
                1.0744704008102417,
                1
            ],
            "translation" : [
                0,
                5,
                -2.8229031562805176
            ]
        },
        {
            "mesh" : 2,
            "name" : "Lower Wall",
            "scale" : [
                2,
                2,
                2
            ],
            "translation" : [
                0,
                4,
                0
            ]
        },
        {
            "mesh" : 3,
            "name" : "Cylinder.001",
            "rotation" : [
                0,
                0,
                0.7071067690849304,
                0.7071068286895752
            ],
            "scale" : [
                1,
                1.0744704008102417,
                1
            ],
            "translation" : [
                0,
                5,
                1.1770968437194824
            ]
        },
        {
            "mesh" : 4,
            "name" : "Floor",
            "scale" : [
                2,
                2,
                2
            ],
            "translation" : [
                0,
                4,
                0
            ]
        }
    ],
    "materials" : [
        {
            "emissiveFactor" : [
                0,
                0,
                0
            ],
            "name" : "Ground",
            "pbrMetallicRoughness" : {
                "baseColorFactor" : [
                    0.4019691050052643,
                    0.33413803577423096,
                    0.2778737246990204,
                    1
                ],
                "metallicFactor" : 0.10000000149011612,
                "roughnessFactor" : 0.5
            }
        },
        {
            "doubleSided" : true,
            "emissiveFactor" : [
                0,
                0,
                0
            ],
            "name" : "Material",
            "pbrMetallicRoughness" : {
                "baseColorFactor" : [
                    0.05379641428589821,
                    0.05441705137491226,
                    0.06071830913424492,
                    1
                ],
                "metallicFactor" : 0.35748791694641113,
                "roughnessFactor" : 0.2550724744796753
            }
        },
        {
            "emissiveFactor" : [
                0,
                0,
                0
            ],
            "name" : "Lower Wall Material",
            "pbrMetallicRoughness" : {
                "baseColorFactor" : [
                    0.06870120018720627,
                    0.021620096638798714,
                    0.015821043401956558,
                    1
                ],
                "metallicFactor" : 0,
                "roughnessFactor" : 0.8396825790405273
            }
        },
        {
            "emissiveFactor" : [
                0,
                0,
                0
            ],
            "name" : "Floor",
            "pbrMetallicRoughness" : {
                "baseColorFactor" : [
                    0.05553073063492775,
                    0.0512089803814888,
                    0.035660382360219955,
                    1
                ],
                "metallicFactor" : 0.10000000149011612,
                "roughnessFactor" : 0.6611111164093018
            }
        }
    ],
    "meshes" : [
        {
            "name" : "Cube.001",
            "primitives" : [
                {
                    "attributes" : {
                        "POSITION" : 0,
                        "NORMAL" : 1
                    },
                    "indices" : 2,
                    "material" : 0
                }
            ]
        },
        {
            "name" : "Cylinder",
            "primitives" : [
                {
                    "attributes" : {
                        "POSITION" : 3,
                        "NORMAL" : 4
                    },
                    "indices" : 5,
                    "material" : 1
                }
            ]
        },
        {
            "name" : "Cube.002",
            "primitives" : [
                {
                    "attributes" : {
                        "POSITION" : 6,
                        "NORMAL" : 7
                    },
                    "indices" : 8,
                    "material" : 2
                }
            ]
        },
        {
            "name" : "Cylinder.003",
            "primitives" : [
                {
                    "attributes" : {
                        "POSITION" : 9,
                        "NORMAL" : 10
                    },
                    "indices" : 5,
                    "material" : 1
                }
            ]
        },
        {
            "name" : "Cube.003",
            "primitives" : [
                {
                    "attributes" : {
                        "POSITION" : 11,
                        "NORMAL" : 12
                    },
                    "indices" : 13,
                    "material" : 3
                }
            ]
        }
    ],
    "accessors" : [
        {
            "bufferView" : 0,
            "componentType" : 5126,
            "count" : 92,
            "max" : [
                2,
                0.8282197117805481,
                2
            ],
            "min" : [
                -2,
                -1.496000051498413,
                -2
            ],
            "type" : "VEC3"
        },
        {
            "bufferView" : 1,
            "componentType" : 5126,
            "count" : 92,
            "type" : "VEC3"
        },
        {
            "bufferView" : 2,
            "componentType" : 5123,
            "count" : 156,
            "type" : "SCALAR"
        },
        {
            "bufferView" : 3,
            "componentType" : 5126,
            "count" : 288,
            "max" : [
                0.10000000149011612,
                4,
                1.1806399822235107
            ],
            "min" : [
                -0.10000000149011612,
                -4,
                -0.10000000149011612
            ],
            "type" : "VEC3"
        },
        {
            "bufferView" : 4,
            "componentType" : 5126,
            "count" : 288,
            "type" : "VEC3"
        },
        {
            "bufferView" : 5,
            "componentType" : 5123,
            "count" : 540,
            "type" : "SCALAR"
        },
        {
            "bufferView" : 6,
            "componentType" : 5126,
            "count" : 48,
            "max" : [
                2,
                -1.496000051498413,
                2
            ],
            "min" : [
                -2,
                -2,
                -2
            ],
            "type" : "VEC3"
        },
        {
            "bufferView" : 7,
            "componentType" : 5126,
            "count" : 48,
            "type" : "VEC3"
        },
        {
            "bufferView" : 8,
            "componentType" : 5123,
            "count" : 72,
            "type" : "SCALAR"
        },
        {
            "bufferView" : 9,
            "componentType" : 5126,
            "count" : 288,
            "max" : [
                0.10000000149011612,
                4,
                1.1806399822235107
            ],
            "min" : [
                -0.10000000149011612,
                -4,
                -0.10000000149011612
            ],
            "type" : "VEC3"
        },
        {
            "bufferView" : 10,
            "componentType" : 5126,
            "count" : 288,
            "type" : "VEC3"
        },
        {
            "bufferView" : 11,
            "componentType" : 5126,
            "count" : 4,
            "max" : [
                1.928511619567871,
                -2,
                1.928511619567871
            ],
            "min" : [
                -1.928511619567871,
                -2,
                -1.928511619567871
            ],
            "type" : "VEC3"
        },
        {
            "bufferView" : 12,
            "componentType" : 5126,
            "count" : 4,
            "type" : "VEC3"
        },
        {
            "bufferView" : 13,
            "componentType" : 5123,
            "count" : 6,
            "type" : "SCALAR"
        }
    ],
    "bufferViews" : [
        {
            "buffer" : 0,
            "byteLength" : 1104,
            "byteOffset" : 0
        },
        {
            "buffer" : 0,
            "byteLength" : 1104,
            "byteOffset" : 1104
        },
        {
            "buffer" : 0,
            "byteLength" : 312,
            "byteOffset" : 2208
        },
        {
            "buffer" : 0,
            "byteLength" : 3456,
            "byteOffset" : 2520
        },
        {
            "buffer" : 0,
            "byteLength" : 3456,
            "byteOffset" : 5976
        },
        {
            "buffer" : 0,
            "byteLength" : 1080,
            "byteOffset" : 9432
        },
        {
            "buffer" : 0,
            "byteLength" : 576,
            "byteOffset" : 10512
        },
        {
            "buffer" : 0,
            "byteLength" : 576,
            "byteOffset" : 11088
        },
        {
            "buffer" : 0,
            "byteLength" : 144,
            "byteOffset" : 11664
        },
        {
            "buffer" : 0,
            "byteLength" : 3456,
            "byteOffset" : 11808
        },
        {
            "buffer" : 0,
            "byteLength" : 3456,
            "byteOffset" : 15264
        },
        {
            "buffer" : 0,
            "byteLength" : 48,
            "byteOffset" : 18720
        },
        {
            "buffer" : 0,
            "byteLength" : 48,
            "byteOffset" : 18768
        },
        {
            "buffer" : 0,
            "byteLength" : 12,
            "byteOffset" : 18816
        }
    ],
    "buffers" : [
        {
            "byteLength" : 18828,
            "uri" : "data:application/octet-stream;base64,"
        }
    ]
}
