{
    "asset" : {
        "generator" : "Khronos glTF Blender I/O v1.5.17",
        "version" : "2.0"
    },
    "scene" : 0,
    "scenes" : [
        {
            "name" : "Scene",
            "nodes" : [
                0
            ]
        }
    ],
    "nodes" : [
        {
            "mesh" : 0,
            "name" : "Asteroid"
        }
    ],
    "materials" : [
        {
            "doubleSided" : true,
            "name" : "Asteroid",
            "pbrMetallicRoughness" : {
                "baseColorFactor" : [
                    0.044454894959926605,
                    0.044454894959926605,
                    0.044454894959926605,
                    1
                ],
                "metallicFactor" : 0.11029413342475891,
                "roughnessFactor" : 0.3485293984413147
            }
        }
    ],
    "meshes" : [
        {
            "name" : "Icosphere",
            "primitives" : [
                {
                    "attributes" : {
                        "POSITION" : 0,
                        "NORMAL" : 1
                    },
                    "indices" : 2,
                    "material" : 0
                }
            ]
        }
    ],
    "accessors" : [
        {
            "bufferView" : 0,
            "componentType" : 5126,
            "count" : 960,
            "max" : [
                2.345912218093872,
                2.4514079093933105,
                2.0350100994110107
            ],
            "min" : [
                -1.8648234605789185,
                -1.7496562004089355,
                -1.900789499282837
            ],
            "type" : "VEC3"
        },
        {
            "bufferView" : 1,
            "componentType" : 5126,
            "count" : 960,
            "type" : "VEC3"
        },
        {
            "bufferView" : 2,
            "componentType" : 5123,
            "count" : 960,
            "type" : "SCALAR"
        }
    ],
    "bufferViews" : [
        {
            "buffer" : 0,
            "byteLength" : 11520,
            "byteOffset" : 0
        },
        {
            "buffer" : 0,
            "byteLength" : 11520,
            "byteOffset" : 11520
        },
        {
            "buffer" : 0,
            "byteLength" : 1920,
            "byteOffset" : 23040
        }
    ],
    "buffers" : [
        {
            "byteLength" : 24960,
            "uri" : "asteroid.bin"
        }
    ]
}
