{
    "asset" : {
        "generator" : "Khronos glTF Blender I/O v1.3.48",
        "version" : "2.0"
    },
    "scene" : 0,
    "scenes" : [
        {
            "name" : "Scene",
            "nodes" : [
                0,
                1,
                2,
                3,
                4,
                5,
                6,
                7,
                8,
                9,
                10
            ]
        }
    ],
    "nodes" : [
        {
            "name" : "Camera",
            "rotation" : [
                0.7071068286895752,
                0,
                0,
                0.7071068286895752
            ],
            "translation" : [
                0,
                2,
                0
            ]
        },
        {
            "mesh" : 0,
            "name" : "Grid",
            "translation" : [
                0,
                0,
                -15
            ]
        },
        {
            "mesh" : 1,
            "name" : "Mesa_3",
            "rotation" : [
                0,
                -0.7410858273506165,
                0,
                0.671410322189331
            ],
            "scale" : [
                2.875532627105713,
                2.875532388687134,
                11.935327529907227
            ],
            "translation" : [
                -46.78974533081055,
                4.350776195526123,
                -71.09854125976562
            ]
        },
        {
            "mesh" : 2,
            "name" : "Mesa_2",
            "rotation" : [
                0,
                -0.10952644795179367,
                0,
                0.9939839839935303
            ],
            "scale" : [
                8.35552978515625,
                8.35552978515625,
                8.35552978515625
            ],
            "translation" : [
                20.94968605041504,
                -3.0326476097106934,
                -112.25692749023438
            ]
        },
        {
            "name" : "Sun",
            "rotation" : [
                0.4819377064704895,
                0.19955532252788544,
                -0.18903297185897827,
                0.8319737315177917
            ],
            "translation" : [
                10.094549179077148,
                9.236397743225098,
                14.453043937683105
            ]
        },
        {
            "mesh" : 3,
            "name" : "Mesa_1",
            "rotation" : [
                0,
                -0.5297231078147888,
                0,
                0.8481706380844116
            ],
            "scale" : [
                7.427133083343506,
                7.4271321296691895,
                7.427133083343506
            ],
            "translation" : [
                162.12335205078125,
                -3.0311825275421143,
                -120.04296875
            ]
        },
        {
            "mesh" : 4,
            "name" : "Cylinder",
            "rotation" : [
                0,
                -0.4411284029483795,
                0,
                0.8974440097808838
            ],
            "translation" : [
                4.578993797302246,
                1.8146164417266846,
                -8.904850006103516
            ]
        },
        {
            "mesh" : 5,
            "name" : "Mesa_1.001",
            "rotation" : [
                -0.03911963105201721,
                -0.37953999638557434,
                -0.016065062955021858,
                0.9242082834243774
            ],
            "scale" : [
                6.2856950759887695,
                6.285695552825928,
                6.2856950759887695
            ],
            "translation" : [
                -62.436920166015625,
                1.7387967109680176,
                43.15435791015625
            ]
        },
        {
            "mesh" : 6,
            "name" : "Mesa_3.001",
            "rotation" : [
                0,
                -0.4699564278125763,
                0,
                0.8826895952224731
            ],
            "scale" : [
                5.586183547973633,
                5.586182594299316,
                23.186288833618164
            ],
            "translation" : [
                75.20664978027344,
                3.3634231090545654,
                62.769989013671875
            ]
        },
        {
            "mesh" : 7,
            "name" : "Skydome",
            "translation" : [
                0,
                2.5240256786346436,
                0
            ]
        },
        {
            "mesh" : 8,
            "name" : "Balancing_Rock_2",
            "rotation" : [
                0,
                -0.20295721292495728,
                0,
                0.9791876077651978
            ],
            "scale" : [
                0.6077622771263123,
                0.6077622771263123,
                0.6077622771263123
            ],
            "translation" : [
                -6.590826034545898,
                0,
                -18.779094696044922
            ]
        }
    ],
    "materials" : [
        {
            "doubleSided" : true,
            "emissiveFactor" : [
                0,
                0,
                0
            ],
            "name" : "Ground",
            "pbrMetallicRoughness" : {
                "baseColorFactor" : [
                    1,
                    0.6375970840454102,
                    0.4232677221298218,
                    1
                ],
                "metallicFactor" : 0,
                "roughnessFactor" : 1
            }
        },
        {
            "doubleSided" : true,
            "emissiveFactor" : [
                0,
                0,
                0
            ],
            "name" : "Stone",
            "pbrMetallicRoughness" : {
                "baseColorFactor" : [
                    1,
                    0.6375970840454102,
                    0.4232677221298218,
                    1
                ],
                "metallicFactor" : 0,
                "roughnessFactor" : 1
            }
        },
        {
            "doubleSided" : true,
            "emissiveFactor" : [
                0,
                0,
                0
            ],
            "name" : "NewSky",
            "pbrMetallicRoughness" : {
                "baseColorTexture" : {
                    "index" : 0,
                    "texCoord" : 0
                },
                "metallicFactor" : 0,
                "roughnessFactor" : 1
            }
        }
    ],
    "meshes" : [
        {
            "name" : "Grid",
            "primitives" : [
                {
                    "attributes" : {
                        "POSITION" : 0,
                        "NORMAL" : 1,
                        "TEXCOORD_0" : 2
                    },
                    "indices" : 3,
                    "material" : 0
                }
            ]
        },
        {
            "name" : "Cube.001",
            "primitives" : [
                {
                    "attributes" : {
                        "POSITION" : 4,
                        "NORMAL" : 5,
                        "TEXCOORD_0" : 6
                    },
                    "indices" : 7,
                    "material" : 1
                }
            ]
        },
        {
            "name" : "Cylinder.001",
            "primitives" : [
                {
                    "attributes" : {
                        "POSITION" : 8,
                        "NORMAL" : 9,
                        "TEXCOORD_0" : 10
                    },
                    "indices" : 11,
                    "material" : 1
                }
            ]
        },
        {
            "name" : "Cylinder.002",
            "primitives" : [
                {
                    "attributes" : {
                        "POSITION" : 12,
                        "NORMAL" : 13,
                        "TEXCOORD_0" : 14
                    },
                    "indices" : 15,
                    "material" : 1
                }
            ]
        },
        {
            "name" : "Cylinder.003",
            "primitives" : [
                {
                    "attributes" : {
                        "POSITION" : 16,
                        "NORMAL" : 17,
                        "TEXCOORD_0" : 18
                    },
                    "indices" : 19,
                    "material" : 1
                }
            ]
        },
        {
            "name" : "Cylinder.004",
            "primitives" : [
                {
                    "attributes" : {
                        "POSITION" : 20,
                        "NORMAL" : 21,
                        "TEXCOORD_0" : 22
                    },
                    "indices" : 15,
                    "material" : 1
                }
            ]
        },
        {
            "name" : "Cube.002",
            "primitives" : [
                {
                    "attributes" : {
                        "POSITION" : 23,
                        "NORMAL" : 24,
                        "TEXCOORD_0" : 25
                    },
                    "indices" : 7,
                    "material" : 1
                }
            ]
        },
        {
            "name" : "Sphere",
            "primitives" : [
                {
                    "attributes" : {
                        "POSITION" : 26,
                        "NORMAL" : 27,
                        "TEXCOORD_0" : 28
                    },
                    "indices" : 29,
                    "material" : 2
                }
            ]
        },
        {
            "name" : "Cylinder.005",
            "primitives" : [
                {
                    "attributes" : {
                        "POSITION" : 30,
                        "NORMAL" : 31,
                        "TEXCOORD_0" : 32
                    },
                    "indices" : 33,
                    "material" : 1
                }
            ]
        }
    ],
    "textures" : [
        {
            "source" : 0
        }
    ],
    "images" : [
        {
            "bufferView" : 30,
            "mimeType" : "image/png",
            "name" : "sky-gradient"
        }
    ],
    "accessors" : [
        {
            "bufferView" : 0,
            "componentType" : 5126,
            "count" : 1113,
            "max" : [
                31.273239135742188,
                2.412165403366089,
                25
            ],
            "min" : [
                -30.87259292602539,
                -0.717118501663208,
                -46.356449127197266
            ],
            "type" : "VEC3"
        },
        {
            "bufferView" : 1,
            "componentType" : 5126,
            "count" : 1113,
            "type" : "VEC3"
        },
        {
            "bufferView" : 2,
            "componentType" : 5126,
            "count" : 1113,
            "type" : "VEC2"
        },
        {
            "bufferView" : 3,
            "componentType" : 5123,
            "count" : 4722,
            "type" : "SCALAR"
        },
        {
            "bufferView" : 4,
            "componentType" : 5126,
            "count" : 509,
            "max" : [
                3.2272865772247314,
                2.909864664077759,
                1.7948110103607178
            ],
            "min" : [
                -3.477599859237671,
                -2.088376522064209,
                -1.8695449829101562
            ],
            "type" : "VEC3"
        },
        {
            "bufferView" : 5,
            "componentType" : 5126,
            "count" : 509,
            "type" : "VEC3"
        },
        {
            "bufferView" : 6,
            "componentType" : 5126,
            "count" : 509,
            "type" : "VEC2"
        },
        {
            "bufferView" : 7,
            "componentType" : 5123,
            "count" : 738,
            "type" : "SCALAR"
        },
        {
            "bufferView" : 8,
            "componentType" : 5126,
            "count" : 658,
            "max" : [
                2.279390573501587,
                2.006277084350586,
                1.2778970003128052
            ],
            "min" : [
                -2.3062491416931152,
                -0.15031379461288452,
                -1.2686985731124878
            ],
            "type" : "VEC3"
        },
        {
            "bufferView" : 9,
            "componentType" : 5126,
            "count" : 658,
            "type" : "VEC3"
        },
        {
            "bufferView" : 10,
            "componentType" : 5126,
            "count" : 658,
            "type" : "VEC2"
        },
        {
            "bufferView" : 11,
            "componentType" : 5123,
            "count" : 1044,
            "type" : "SCALAR"
        },
        {
            "bufferView" : 12,
            "componentType" : 5126,
            "count" : 276,
            "max" : [
                4.1566948890686035,
                3.400571823120117,
                2.01639461517334
            ],
            "min" : [
                -5.894058704376221,
                -1,
                -2.4328842163085938
            ],
            "type" : "VEC3"
        },
        {
            "bufferView" : 13,
            "componentType" : 5126,
            "count" : 276,
            "type" : "VEC3"
        },
        {
            "bufferView" : 14,
            "componentType" : 5126,
            "count" : 276,
            "type" : "VEC2"
        },
        {
            "bufferView" : 15,
            "componentType" : 5123,
            "count" : 420,
            "type" : "SCALAR"
        },
        {
            "bufferView" : 16,
            "componentType" : 5126,
            "count" : 489,
            "max" : [
                2.4767699241638184,
                2.4891769886016846,
                1.2780486345291138
            ],
            "min" : [
                -1.97214674949646,
                -1,
                -1.2517949342727661
            ],
            "type" : "VEC3"
        },
        {
            "bufferView" : 17,
            "componentType" : 5126,
            "count" : 489,
            "type" : "VEC3"
        },
        {
            "bufferView" : 18,
            "componentType" : 5126,
            "count" : 489,
            "type" : "VEC2"
        },
        {
            "bufferView" : 19,
            "componentType" : 5123,
            "count" : 723,
            "type" : "SCALAR"
        },
        {
            "bufferView" : 20,
            "componentType" : 5126,
            "count" : 276,
            "max" : [
                4.1566948890686035,
                3.400571823120117,
                2.01639461517334
            ],
            "min" : [
                -5.894058704376221,
                -1,
                -2.4328842163085938
            ],
            "type" : "VEC3"
        },
        {
            "bufferView" : 21,
            "componentType" : 5126,
            "count" : 276,
            "type" : "VEC3"
        },
        {
            "bufferView" : 22,
            "componentType" : 5126,
            "count" : 276,
            "type" : "VEC2"
        },
        {
            "bufferView" : 23,
            "componentType" : 5126,
            "count" : 509,
            "max" : [
                3.2272865772247314,
                2.909864664077759,
                1.7948110103607178
            ],
            "min" : [
                -3.477599859237671,
                -2.088376522064209,
                -1.8695449829101562
            ],
            "type" : "VEC3"
        },
        {
            "bufferView" : 24,
            "componentType" : 5126,
            "count" : 509,
            "type" : "VEC3"
        },
        {
            "bufferView" : 25,
            "componentType" : 5126,
            "count" : 509,
            "type" : "VEC2"
        },
        {
            "bufferView" : 26,
            "componentType" : 5126,
            "count" : 299,
            "max" : [
                500.00006103515625,
                500,
                500.0000305175781
            ],
            "min" : [
                -499.9997253417969,
                -97.54510498046875,
                -499.99957275390625
            ],
            "type" : "VEC3"
        },
        {
            "bufferView" : 27,
            "componentType" : 5126,
            "count" : 299,
            "type" : "VEC3"
        },
        {
            "bufferView" : 28,
            "componentType" : 5126,
            "count" : 299,
            "type" : "VEC2"
        },
        {
            "bufferView" : 29,
            "componentType" : 5123,
            "count" : 1632,
            "type" : "SCALAR"
        },
        {
            "bufferView" : 31,
            "componentType" : 5126,
            "count" : 500,
            "max" : [
                2.5865061283111572,
                9.167545318603516,
                1.9700871706008911
            ],
            "min" : [
                -2.2520601749420166,
                -1,
                -2.238917827606201
            ],
            "type" : "VEC3"
        },
        {
            "bufferView" : 32,
            "componentType" : 5126,
            "count" : 500,
            "type" : "VEC3"
        },
        {
            "bufferView" : 33,
            "componentType" : 5126,
            "count" : 500,
            "type" : "VEC2"
        },
        {
            "bufferView" : 34,
            "componentType" : 5123,
            "count" : 768,
            "type" : "SCALAR"
        }
    ],
    "bufferViews" : [
        {
            "buffer" : 0,
            "byteLength" : 13356,
            "byteOffset" : 0
        },
        {
            "buffer" : 0,
            "byteLength" : 13356,
            "byteOffset" : 13356
        },
        {
            "buffer" : 0,
            "byteLength" : 8904,
            "byteOffset" : 26712
        },
        {
            "buffer" : 0,
            "byteLength" : 9444,
            "byteOffset" : 35616
        },
        {
            "buffer" : 0,
            "byteLength" : 6108,
            "byteOffset" : 45060
        },
        {
            "buffer" : 0,
            "byteLength" : 6108,
            "byteOffset" : 51168
        },
        {
            "buffer" : 0,
            "byteLength" : 4072,
            "byteOffset" : 57276
        },
        {
            "buffer" : 0,
            "byteLength" : 1476,
            "byteOffset" : 61348
        },
        {
            "buffer" : 0,
            "byteLength" : 7896,
            "byteOffset" : 62824
        },
        {
            "buffer" : 0,
            "byteLength" : 7896,
            "byteOffset" : 70720
        },
        {
            "buffer" : 0,
            "byteLength" : 5264,
            "byteOffset" : 78616
        },
        {
            "buffer" : 0,
            "byteLength" : 2088,
            "byteOffset" : 83880
        },
        {
            "buffer" : 0,
            "byteLength" : 3312,
            "byteOffset" : 85968
        },
        {
            "buffer" : 0,
            "byteLength" : 3312,
            "byteOffset" : 89280
        },
        {
            "buffer" : 0,
            "byteLength" : 2208,
            "byteOffset" : 92592
        },
        {
            "buffer" : 0,
            "byteLength" : 840,
            "byteOffset" : 94800
        },
        {
            "buffer" : 0,
            "byteLength" : 5868,
            "byteOffset" : 95640
        },
        {
            "buffer" : 0,
            "byteLength" : 5868,
            "byteOffset" : 101508
        },
        {
            "buffer" : 0,
            "byteLength" : 3912,
            "byteOffset" : 107376
        },
        {
            "buffer" : 0,
            "byteLength" : 1446,
            "byteOffset" : 111288
        },
        {
            "buffer" : 0,
            "byteLength" : 3312,
            "byteOffset" : 112736
        },
        {
            "buffer" : 0,
            "byteLength" : 3312,
            "byteOffset" : 116048
        },
        {
            "buffer" : 0,
            "byteLength" : 2208,
            "byteOffset" : 119360
        },
        {
            "buffer" : 0,
            "byteLength" : 6108,
            "byteOffset" : 121568
        },
        {
            "buffer" : 0,
            "byteLength" : 6108,
            "byteOffset" : 127676
        },
        {
            "buffer" : 0,
            "byteLength" : 4072,
            "byteOffset" : 133784
        },
        {
            "buffer" : 0,
            "byteLength" : 3588,
            "byteOffset" : 137856
        },
        {
            "buffer" : 0,
            "byteLength" : 3588,
            "byteOffset" : 141444
        },
        {
            "buffer" : 0,
            "byteLength" : 2392,
            "byteOffset" : 145032
        },
        {
            "buffer" : 0,
            "byteLength" : 3264,
            "byteOffset" : 147424
        },
        {
            "buffer" : 0,
            "byteLength" : 6420,
            "byteOffset" : 150688
        },
        {
            "buffer" : 0,
            "byteLength" : 6000,
            "byteOffset" : 157108
        },
        {
            "buffer" : 0,
            "byteLength" : 6000,
            "byteOffset" : 163108
        },
        {
            "buffer" : 0,
            "byteLength" : 4000,
            "byteOffset" : 169108
        },
        {
            "buffer" : 0,
            "byteLength" : 1536,
            "byteOffset" : 173108
        }
    ],
    "buffers" : [
        {
            "byteLength" : 174644,
            "uri" : "data:application/octet-stream;base64,"
        }
    ]
}
