{
    "asset" : {
        "generator" : "Khronos glTF Blender I/O v1.3.48",
        "version" : "2.0"
    },
    "scene" : 0,
    "scenes" : [
        {
            "name" : "Scene",
            "nodes" : [
                0,
                1,
                2,
                3,
                4,
                5,
                6
            ]
        }
    ],
    "nodes" : [
        {
            "mesh" : 0,
            "name" : "Grid",
            "rotation" : [
                0,
                0.7071068286895752,
                0,
                0.7071068286895752
            ],
            "translation" : [
                0,
                0,
                -5
            ]
        },
        {
            "mesh" : 1,
            "name" : "Cube",
            "rotation" : [
                0,
                -0.9850936532020569,
                0,
                -0.17201881110668182
            ],
            "scale" : [
                4.390972137451172,
                2.204118490219116,
                1.9255050420761108
            ],
            "translation" : [
                35,
                -10,
                -81
            ]
        },
        {
            "mesh" : 2,
            "name" : "Cube.001",
            "rotation" : [
                0,
                -0.5956897735595703,
                0,
                0.8032146096229553
            ],
            "scale" : [
                3.5134541988372803,
                2.583876132965088,
                3.310281753540039
            ],
            "translation" : [
                25,
                -13,
                -176
            ]
        },
        {
            "mesh" : 3,
            "name" : "Cube.002",
            "rotation" : [
                0,
                -0.12955418229103088,
                0,
                0.9915723204612732
            ],
            "scale" : [
                2.101832866668701,
                2.101832628250122,
                2.101832866668701
            ],
            "translation" : [
                -80,
                -10,
                -63
            ]
        },
        {
            "mesh" : 4,
            "name" : "Cube.003",
            "rotation" : [
                0,
                -0.12955418229103088,
                0,
                0.9915723204612732
            ],
            "scale" : [
                2.101832866668701,
                2.101832628250122,
                2.101832866668701
            ],
            "translation" : [
                -34,
                -15,
                -104
            ]
        },
        {
            "mesh" : 5,
            "name" : "Cube.004",
            "rotation" : [
                0,
                -0.9850936532020569,
                0,
                -0.17201881110668182
            ],
            "scale" : [
                4.390972137451172,
                2.204118490219116,
                1.9255050420761108
            ],
            "translation" : [
                -39,
                -8,
                -74
            ]
        },
        {
            "mesh" : 6,
            "name" : "Cube.005",
            "rotation" : [
                0,
                0.8638127446174622,
                0,
                0.5038132071495056
            ],
            "scale" : [
                8.321710586547852,
                3.790045976638794,
                3.1920886039733887
            ],
            "translation" : [
                -32,
                -23,
                -212
            ]
        }
    ],
    "materials" : [
        {
            "doubleSided" : true,
            "emissiveFactor" : [
                0,
                0,
                0
            ],
            "name" : "Simple Terrain",
            "pbrMetallicRoughness" : {
                "baseColorFactor" : [
                    0.8549790978431702,
                    0.7750603556632996,
                    0.5622133612632751,
                    1
                ],
                "metallicFactor" : 0,
                "roughnessFactor" : 1
            }
        }
    ],
    "meshes" : [
        {
            "name" : "Grid",
            "primitives" : [
                {
                    "attributes" : {
                        "POSITION" : 0,
                        "NORMAL" : 1
                    },
                    "indices" : 2,
                    "material" : 0
                }
            ]
        },
        {
            "name" : "Cube.001",
            "primitives" : [
                {
                    "attributes" : {
                        "POSITION" : 3,
                        "NORMAL" : 4
                    },
                    "indices" : 5,
                    "material" : 0
                }
            ]
        },
        {
            "name" : "Cube.002",
            "primitives" : [
                {
                    "attributes" : {
                        "POSITION" : 6,
                        "NORMAL" : 7
                    },
                    "indices" : 5,
                    "material" : 0
                }
            ]
        },
        {
            "name" : "Cube.003",
            "primitives" : [
                {
                    "attributes" : {
                        "POSITION" : 8,
                        "NORMAL" : 9
                    },
                    "indices" : 5,
                    "material" : 0
                }
            ]
        },
        {
            "name" : "Cube.004",
            "primitives" : [
                {
                    "attributes" : {
                        "POSITION" : 10,
                        "NORMAL" : 11
                    },
                    "indices" : 5,
                    "material" : 0
                }
            ]
        },
        {
            "name" : "Cube.005",
            "primitives" : [
                {
                    "attributes" : {
                        "POSITION" : 12,
                        "NORMAL" : 13
                    },
                    "indices" : 5,
                    "material" : 0
                }
            ]
        },
        {
            "name" : "Cube.006",
            "primitives" : [
                {
                    "attributes" : {
                        "POSITION" : 14,
                        "NORMAL" : 15
                    },
                    "indices" : 5,
                    "material" : 0
                }
            ]
        }
    ],
    "accessors" : [
        {
            "bufferView" : 0,
            "componentType" : 5126,
            "count" : 1624,
            "max" : [
                10,
                2,
                10
            ],
            "min" : [
                -10,
                -0.11772286891937256,
                -10
            ],
            "type" : "VEC3"
        },
        {
            "bufferView" : 1,
            "componentType" : 5126,
            "count" : 1624,
            "type" : "VEC3"
        },
        {
            "bufferView" : 2,
            "componentType" : 5123,
            "count" : 9162,
            "type" : "SCALAR"
        },
        {
            "bufferView" : 3,
            "componentType" : 5126,
            "count" : 88,
            "max" : [
                3.828737258911133,
                5.825794696807861,
                3.644843578338623
            ],
            "min" : [
                -3.298419952392578,
                -1,
                -5.494228363037109
            ],
            "type" : "VEC3"
        },
        {
            "bufferView" : 4,
            "componentType" : 5126,
            "count" : 88,
            "type" : "VEC3"
        },
        {
            "bufferView" : 5,
            "componentType" : 5123,
            "count" : 132,
            "type" : "SCALAR"
        },
        {
            "bufferView" : 6,
            "componentType" : 5126,
            "count" : 88,
            "max" : [
                4.512230396270752,
                5.825794696807861,
                3.644843578338623
            ],
            "min" : [
                -3.298419952392578,
                -1,
                -5.494228363037109
            ],
            "type" : "VEC3"
        },
        {
            "bufferView" : 7,
            "componentType" : 5126,
            "count" : 88,
            "type" : "VEC3"
        },
        {
            "bufferView" : 8,
            "componentType" : 5126,
            "count" : 88,
            "max" : [
                4.512230396270752,
                5.825794696807861,
                3.644843578338623
            ],
            "min" : [
                -3.298419952392578,
                -1,
                -5.494228363037109
            ],
            "type" : "VEC3"
        },
        {
            "bufferView" : 9,
            "componentType" : 5126,
            "count" : 88,
            "type" : "VEC3"
        },
        {
            "bufferView" : 10,
            "componentType" : 5126,
            "count" : 88,
            "max" : [
                4.512230396270752,
                5.825794696807861,
                3.644843578338623
            ],
            "min" : [
                -3.298419952392578,
                -1,
                -5.494228363037109
            ],
            "type" : "VEC3"
        },
        {
            "bufferView" : 11,
            "componentType" : 5126,
            "count" : 88,
            "type" : "VEC3"
        },
        {
            "bufferView" : 12,
            "componentType" : 5126,
            "count" : 88,
            "max" : [
                3.828737258911133,
                5.825794696807861,
                3.644843578338623
            ],
            "min" : [
                -3.298419952392578,
                -1,
                -5.494228363037109
            ],
            "type" : "VEC3"
        },
        {
            "bufferView" : 13,
            "componentType" : 5126,
            "count" : 88,
            "type" : "VEC3"
        },
        {
            "bufferView" : 14,
            "componentType" : 5126,
            "count" : 88,
            "max" : [
                3.828737258911133,
                5.825794696807861,
                3.644843578338623
            ],
            "min" : [
                -3.298419952392578,
                -1,
                -5.494228363037109
            ],
            "type" : "VEC3"
        },
        {
            "bufferView" : 15,
            "componentType" : 5126,
            "count" : 88,
            "type" : "VEC3"
        }
    ],
    "bufferViews" : [
        {
            "buffer" : 0,
            "byteLength" : 19488,
            "byteOffset" : 0
        },
        {
            "buffer" : 0,
            "byteLength" : 19488,
            "byteOffset" : 19488
        },
        {
            "buffer" : 0,
            "byteLength" : 18324,
            "byteOffset" : 38976
        },
        {
            "buffer" : 0,
            "byteLength" : 1056,
            "byteOffset" : 57300
        },
        {
            "buffer" : 0,
            "byteLength" : 1056,
            "byteOffset" : 58356
        },
        {
            "buffer" : 0,
            "byteLength" : 264,
            "byteOffset" : 59412
        },
        {
            "buffer" : 0,
            "byteLength" : 1056,
            "byteOffset" : 59676
        },
        {
            "buffer" : 0,
            "byteLength" : 1056,
            "byteOffset" : 60732
        },
        {
            "buffer" : 0,
            "byteLength" : 1056,
            "byteOffset" : 61788
        },
        {
            "buffer" : 0,
            "byteLength" : 1056,
            "byteOffset" : 62844
        },
        {
            "buffer" : 0,
            "byteLength" : 1056,
            "byteOffset" : 63900
        },
        {
            "buffer" : 0,
            "byteLength" : 1056,
            "byteOffset" : 64956
        },
        {
            "buffer" : 0,
            "byteLength" : 1056,
            "byteOffset" : 66012
        },
        {
            "buffer" : 0,
            "byteLength" : 1056,
            "byteOffset" : 67068
        },
        {
            "buffer" : 0,
            "byteLength" : 1056,
            "byteOffset" : 68124
        },
        {
            "buffer" : 0,
            "byteLength" : 1056,
            "byteOffset" : 69180
        }
    ],
    "buffers" : [
        {
            "byteLength" : 70236,
            "uri" : "data:application/octet-stream;base64,"
        }
    ]
}
