{
    "asset" : {
        "generator" : "Khronos glTF Blender I/O v1.3.48",
        "version" : "2.0"
    },
    "scene" : 0,
    "scenes" : [
        {
            "name" : "Scene",
            "nodes" : [
                0,
                1,
                2
            ]
        }
    ],
    "nodes" : [
        {
            "mesh" : 0,
            "name" : "Spheres",
            "translation" : [
                -3.975558280944824,
                0.8146485090255737,
                -11.996673583984375
            ]
        },
        {
            "mesh" : 1,
            "name" : "Spheres.001",
            "rotation" : [
                0,
                0,
                0.43403708934783936,
                0.9008949995040894
            ],
            "translation" : [
                35.02444076538086,
                5.814648628234863,
                -11.996673583984375
            ]
        },
        {
            "mesh" : 2,
            "name" : "Spheres.002",
            "rotation" : [
                0,
                0,
                0.2182229906320572,
                0.9758990406990051
            ],
            "translation" : [
                -23.97555923461914,
                3.8146486282348633,
                -11.996673583984375
            ]
        }
    ],
    "materials" : [
        {
            "doubleSided" : true,
            "emissiveFactor" : [
                0,
                0,
                0
            ],
            "name" : "Sphere Material",
            "pbrMetallicRoughness" : {
                "baseColorFactor" : [
                    1,
                    0.8213312029838562,
                    0.6937769055366516,
                    1
                ],
                "metallicFactor" : 0,
                "roughnessFactor" : 1
            }
        }
    ],
    "meshes" : [
        {
            "name" : "Sphere.004",
            "primitives" : [
                {
                    "attributes" : {
                        "POSITION" : 0,
                        "NORMAL" : 1
                    },
                    "indices" : 2,
                    "material" : 0
                }
            ]
        },
        {
            "name" : "Sphere.009",
            "primitives" : [
                {
                    "attributes" : {
                        "POSITION" : 3,
                        "NORMAL" : 4
                    },
                    "indices" : 2,
                    "material" : 0
                }
            ]
        },
        {
            "name" : "Sphere.010",
            "primitives" : [
                {
                    "attributes" : {
                        "POSITION" : 5,
                        "NORMAL" : 6
                    },
                    "indices" : 2,
                    "material" : 0
                }
            ]
        }
    ],
    "accessors" : [
        {
            "bufferView" : 0,
            "componentType" : 5126,
            "count" : 3234,
            "max" : [
                15.755615234375,
                13.689420700073242,
                1.0000003576278687
            ],
            "min" : [
                -29.244384765625,
                -13.310579299926758,
                -109.41207885742188
            ],
            "type" : "VEC3"
        },
        {
            "bufferView" : 1,
            "componentType" : 5126,
            "count" : 3234,
            "type" : "VEC3"
        },
        {
            "bufferView" : 2,
            "componentType" : 5123,
            "count" : 19296,
            "type" : "SCALAR"
        },
        {
            "bufferView" : 3,
            "componentType" : 5126,
            "count" : 3234,
            "max" : [
                15.755615234375,
                13.689420700073242,
                1.0000003576278687
            ],
            "min" : [
                -29.244384765625,
                -13.310579299926758,
                -109.41207885742188
            ],
            "type" : "VEC3"
        },
        {
            "bufferView" : 4,
            "componentType" : 5126,
            "count" : 3234,
            "type" : "VEC3"
        },
        {
            "bufferView" : 5,
            "componentType" : 5126,
            "count" : 3234,
            "max" : [
                15.755615234375,
                13.689420700073242,
                1.0000003576278687
            ],
            "min" : [
                -29.244384765625,
                -13.310579299926758,
                -109.41207885742188
            ],
            "type" : "VEC3"
        },
        {
            "bufferView" : 6,
            "componentType" : 5126,
            "count" : 3234,
            "type" : "VEC3"
        }
    ],
    "bufferViews" : [
        {
            "buffer" : 0,
            "byteLength" : 38808,
            "byteOffset" : 0
        },
        {
            "buffer" : 0,
            "byteLength" : 38808,
            "byteOffset" : 38808
        },
        {
            "buffer" : 0,
            "byteLength" : 38592,
            "byteOffset" : 77616
        },
        {
            "buffer" : 0,
            "byteLength" : 38808,
            "byteOffset" : 116208
        },
        {
            "buffer" : 0,
            "byteLength" : 38808,
            "byteOffset" : 155016
        },
        {
            "buffer" : 0,
            "byteLength" : 38808,
            "byteOffset" : 193824
        },
        {
            "buffer" : 0,
            "byteLength" : 38808,
            "byteOffset" : 232632
        }
    ],
    "buffers" : [
        {
            "byteLength" : 271440,
            "uri" : "data:application/octet-stream;base64,"
        }
    ]
}
